<svg xmlns="http://www.w3.org/2000/svg" viewBox="0 0 462.45 462.44"><defs><style>.cls-1{fill:#fff;}.cls-2{fill:#14673c;}.cls-3{fill:#ebbc1d;}.cls-4{fill:#ea2877;}.cls-5{fill:#0f81c2;}.cls-6{fill:#a64a9a;}.cls-7{fill:#da2328;}.cls-8{fill:#653516;}.cls-9{fill:#ecbd1c;}.cls-10{fill:#0d82c2;}.cls-11{fill:#b0293c;}.cls-12{fill:#923560;}.cls-13{fill:#e23d27;}.cls-14{fill:#267693;}.cls-15{fill:#7f4f9a;}.cls-16{fill:#cc1c71;}</style></defs><g id="Layer_2" data-name="Layer 2"><g id="Layer_1-2" data-name="Layer 1"><circle class="cls-1" cx="231.18" cy="231.19" r="125.11"/><path class="cls-2" d="M251.7,290.61a7,7,0,0,0-5-2.25A4.73,4.73,0,0,0,243,289.8a4.82,4.82,0,0,0-1.53,3.43,7,7,0,0,0,2.35,5.15,6.65,6.65,0,0,0,4.87,2.25,5.12,5.12,0,0,0,3.61-1.35,5.22,5.22,0,0,0,1.63-4.06A6.76,6.76,0,0,0,251.7,290.61Zm0,0a7,7,0,0,0-5-2.25A4.73,4.73,0,0,0,243,289.8a4.82,4.82,0,0,0-1.53,3.43,7,7,0,0,0,2.35,5.15,6.65,6.65,0,0,0,4.87,2.25,5.12,5.12,0,0,0,3.61-1.35,5.22,5.22,0,0,0,1.63-4.06A6.76,6.76,0,0,0,251.7,290.61Zm0,0a7,7,0,0,0-5-2.25A4.73,4.73,0,0,0,243,289.8a4.82,4.82,0,0,0-1.53,3.43,7,7,0,0,0,2.35,5.15,6.65,6.65,0,0,0,4.87,2.25,5.12,5.12,0,0,0,3.61-1.35,5.22,5.22,0,0,0,1.63-4.06A6.76,6.76,0,0,0,251.7,290.61Zm17.34-.45a3.68,3.68,0,0,0-3.07-1.62,4.09,4.09,0,0,0-3,1.26,5.14,5.14,0,0,0-1.18,3.34v4.79a3.45,3.45,0,0,0,.91,2.43,3.32,3.32,0,0,0,2.34.82,4.25,4.25,0,0,0,3.71-2.26,9,9,0,0,0,1.35-4.88A6.8,6.8,0,0,0,269,290.16Zm0,0a3.68,3.68,0,0,0-3.07-1.62,4.09,4.09,0,0,0-3,1.26,5.14,5.14,0,0,0-1.18,3.34v4.79a3.45,3.45,0,0,0,.91,2.43,3.32,3.32,0,0,0,2.34.82,4.25,4.25,0,0,0,3.71-2.26,9,9,0,0,0,1.35-4.88A6.8,6.8,0,0,0,269,290.16Zm-17.34.45a7,7,0,0,0-5-2.25A4.73,4.73,0,0,0,243,289.8a4.82,4.82,0,0,0-1.53,3.43,7,7,0,0,0,2.35,5.15,6.65,6.65,0,0,0,4.87,2.25,5.12,5.12,0,0,0,3.61-1.35,5.22,5.22,0,0,0,1.63-4.06A6.76,6.76,0,0,0,251.7,290.61Zm0,0a7,7,0,0,0-5-2.25A4.73,4.73,0,0,0,243,289.8a4.82,4.82,0,0,0-1.53,3.43,7,7,0,0,0,2.35,5.15,6.65,6.65,0,0,0,4.87,2.25,5.12,5.12,0,0,0,3.61-1.35,5.22,5.22,0,0,0,1.63-4.06A6.76,6.76,0,0,0,251.7,290.61Zm17.34-.45a3.68,3.68,0,0,0-3.07-1.62,4.09,4.09,0,0,0-3,1.26,5.14,5.14,0,0,0-1.18,3.34v4.79a3.45,3.45,0,0,0,.91,2.43,3.32,3.32,0,0,0,2.34.82,4.25,4.25,0,0,0,3.71-2.26,9,9,0,0,0,1.35-4.88A6.8,6.8,0,0,0,269,290.16Zm15.8,3.79a5.11,5.11,0,0,0-3.16-1,4,4,0,0,0-2.8,1.08,3,3,0,0,0-1.18,2.53,3.41,3.41,0,0,0,1.18,2.71,4.65,4.65,0,0,0,6,0,3.49,3.49,0,0,0,1.17-2.8A3,3,0,0,0,284.84,294Zm0,0a5.11,5.11,0,0,0-3.16-1,4,4,0,0,0-2.8,1.08,3,3,0,0,0-1.18,2.53,3.41,3.41,0,0,0,1.18,2.71,4.65,4.65,0,0,0,6,0,3.49,3.49,0,0,0,1.17-2.8A3,3,0,0,0,284.84,294ZM269,290.16a3.68,3.68,0,0,0-3.07-1.62,4.09,4.09,0,0,0-3,1.26,5.14,5.14,0,0,0-1.18,3.34v4.79a3.45,3.45,0,0,0,.91,2.43,3.32,3.32,0,0,0,2.34.82,4.25,4.25,0,0,0,3.71-2.26,9,9,0,0,0,1.35-4.88A6.8,6.8,0,0,0,269,290.16Zm-17.34.45a7,7,0,0,0-5-2.25A4.73,4.73,0,0,0,243,289.8a4.82,4.82,0,0,0-1.53,3.43,7,7,0,0,0,2.35,5.15,6.65,6.65,0,0,0,4.87,2.25,5.12,5.12,0,0,0,3.61-1.35,5.22,5.22,0,0,0,1.63-4.06A6.76,6.76,0,0,0,251.7,290.61Zm0,0a7,7,0,0,0-5-2.25A4.73,4.73,0,0,0,243,289.8a4.82,4.82,0,0,0-1.53,3.43,7,7,0,0,0,2.35,5.15,6.65,6.65,0,0,0,4.87,2.25,5.12,5.12,0,0,0,3.61-1.35,5.22,5.22,0,0,0,1.63-4.06A6.76,6.76,0,0,0,251.7,290.61Zm17.34-.45a3.68,3.68,0,0,0-3.07-1.62,4.09,4.09,0,0,0-3,1.26,5.14,5.14,0,0,0-1.18,3.34v4.79a3.45,3.45,0,0,0,.91,2.43,3.32,3.32,0,0,0,2.34.82,4.25,4.25,0,0,0,3.71-2.26,9,9,0,0,0,1.35-4.88A6.8,6.8,0,0,0,269,290.16Zm15.8,3.79a5.11,5.11,0,0,0-3.16-1,4,4,0,0,0-2.8,1.08,3,3,0,0,0-1.18,2.53,3.41,3.41,0,0,0,1.18,2.71,4.65,4.65,0,0,0,6,0,3.49,3.49,0,0,0,1.17-2.8A3,3,0,0,0,284.84,294Zm0,0a5.11,5.11,0,0,0-3.16-1,4,4,0,0,0-2.8,1.08,3,3,0,0,0-1.18,2.53,3.41,3.41,0,0,0,1.18,2.71,4.65,4.65,0,0,0,6,0,3.49,3.49,0,0,0,1.17-2.8A3,3,0,0,0,284.84,294ZM269,290.16a3.68,3.68,0,0,0-3.07-1.62,4.09,4.09,0,0,0-3,1.26,5.14,5.14,0,0,0-1.18,3.34v4.79a3.45,3.45,0,0,0,.91,2.43,3.32,3.32,0,0,0,2.34.82,4.25,4.25,0,0,0,3.71-2.26,9,9,0,0,0,1.35-4.88A6.8,6.8,0,0,0,269,290.16Zm-17.34.45a7,7,0,0,0-5-2.25A4.73,4.73,0,0,0,243,289.8a4.82,4.82,0,0,0-1.53,3.43,7,7,0,0,0,2.35,5.15,6.65,6.65,0,0,0,4.87,2.25,5.12,5.12,0,0,0,3.61-1.35,5.22,5.22,0,0,0,1.63-4.06A6.76,6.76,0,0,0,251.7,290.61Zm0,0a7,7,0,0,0-5-2.25A4.73,4.73,0,0,0,243,289.8a4.82,4.82,0,0,0-1.53,3.43,7,7,0,0,0,2.35,5.15,6.65,6.65,0,0,0,4.87,2.25,5.12,5.12,0,0,0,3.61-1.35,5.22,5.22,0,0,0,1.63-4.06A6.76,6.76,0,0,0,251.7,290.61Zm17.34-.45a3.68,3.68,0,0,0-3.07-1.62,4.09,4.09,0,0,0-3,1.26,5.14,5.14,0,0,0-1.18,3.34v4.79a3.45,3.45,0,0,0,.91,2.43,3.32,3.32,0,0,0,2.34.82,4.25,4.25,0,0,0,3.71-2.26,9,9,0,0,0,1.35-4.88A6.8,6.8,0,0,0,269,290.16Zm15.8,3.79a5.11,5.11,0,0,0-3.16-1,4,4,0,0,0-2.8,1.08,3,3,0,0,0-1.18,2.53,3.41,3.41,0,0,0,1.18,2.71,4.65,4.65,0,0,0,6,0,3.49,3.49,0,0,0,1.17-2.8A3,3,0,0,0,284.84,294Zm0,0a5.11,5.11,0,0,0-3.16-1,4,4,0,0,0-2.8,1.08,3,3,0,0,0-1.18,2.53,3.41,3.41,0,0,0,1.18,2.71,4.65,4.65,0,0,0,6,0,3.49,3.49,0,0,0,1.17-2.8A3,3,0,0,0,284.84,294ZM269,290.16a3.68,3.68,0,0,0-3.07-1.62,4.09,4.09,0,0,0-3,1.26,5.14,5.14,0,0,0-1.18,3.34v4.79a3.45,3.45,0,0,0,.91,2.43,3.32,3.32,0,0,0,2.34.82,4.25,4.25,0,0,0,3.71-2.26,9,9,0,0,0,1.35-4.88A6.8,6.8,0,0,0,269,290.16Zm-17.34.45a7,7,0,0,0-5-2.25A4.73,4.73,0,0,0,243,289.8a4.82,4.82,0,0,0-1.53,3.43,7,7,0,0,0,2.35,5.15,6.65,6.65,0,0,0,4.87,2.25,5.12,5.12,0,0,0,3.61-1.35,5.22,5.22,0,0,0,1.63-4.06A6.76,6.76,0,0,0,251.7,290.61Zm-55.52,0a7.09,7.09,0,0,0-5.15-2.25,5,5,0,0,0-3.61,1.44,4.72,4.72,0,0,0-1.44,3.43,7,7,0,0,0,2.25,5.15,6.86,6.86,0,0,0,5,2.25,5.13,5.13,0,0,0,3.61-1.35,5.24,5.24,0,0,0,1.62-4.06A6.79,6.79,0,0,0,196.18,290.61Zm55.52,0a7,7,0,0,0-5-2.25A4.73,4.73,0,0,0,243,289.8a4.82,4.82,0,0,0-1.53,3.43,7,7,0,0,0,2.35,5.15,6.65,6.65,0,0,0,4.87,2.25,5.12,5.12,0,0,0,3.61-1.35,5.22,5.22,0,0,0,1.63-4.06A6.76,6.76,0,0,0,251.7,290.61Zm17.34-.45a3.68,3.68,0,0,0-3.07-1.62,4.09,4.09,0,0,0-3,1.26,5.14,5.14,0,0,0-1.18,3.34v4.79a3.45,3.45,0,0,0,.91,2.43,3.32,3.32,0,0,0,2.34.82,4.25,4.25,0,0,0,3.71-2.26,9,9,0,0,0,1.35-4.88A6.8,6.8,0,0,0,269,290.16Zm15.8,3.79a5.11,5.11,0,0,0-3.16-1,4,4,0,0,0-2.8,1.08,3,3,0,0,0-1.18,2.53,3.41,3.41,0,0,0,1.18,2.71,4.65,4.65,0,0,0,6,0,3.49,3.49,0,0,0,1.17-2.8A3,3,0,0,0,284.84,294Zm0,0a5.11,5.11,0,0,0-3.16-1,4,4,0,0,0-2.8,1.08,3,3,0,0,0-1.18,2.53,3.41,3.41,0,0,0,1.18,2.71,4.65,4.65,0,0,0,6,0,3.49,3.49,0,0,0,1.17-2.8A3,3,0,0,0,284.84,294ZM269,290.16a3.68,3.68,0,0,0-3.07-1.62,4.09,4.09,0,0,0-3,1.26,5.14,5.14,0,0,0-1.18,3.34v4.79a3.45,3.45,0,0,0,.91,2.43,3.32,3.32,0,0,0,2.34.82,4.25,4.25,0,0,0,3.71-2.26,9,9,0,0,0,1.35-4.88A6.8,6.8,0,0,0,269,290.16Zm-17.34.45a7,7,0,0,0-5-2.25A4.73,4.73,0,0,0,243,289.8a4.82,4.82,0,0,0-1.53,3.43,7,7,0,0,0,2.35,5.15,6.65,6.65,0,0,0,4.87,2.25,5.12,5.12,0,0,0,3.61-1.35,5.22,5.22,0,0,0,1.63-4.06A6.76,6.76,0,0,0,251.7,290.61Zm-55.52,0a7.09,7.09,0,0,0-5.15-2.25,5,5,0,0,0-3.61,1.44,4.72,4.72,0,0,0-1.44,3.43,7,7,0,0,0,2.25,5.15,6.86,6.86,0,0,0,5,2.25,5.13,5.13,0,0,0,3.61-1.35,5.24,5.24,0,0,0,1.62-4.06A6.79,6.79,0,0,0,196.18,290.61Zm0,0a7.09,7.09,0,0,0-5.15-2.25,5,5,0,0,0-3.61,1.44,4.72,4.72,0,0,0-1.44,3.43,7,7,0,0,0,2.25,5.15,6.86,6.86,0,0,0,5,2.25,5.13,5.13,0,0,0,3.61-1.35,5.24,5.24,0,0,0,1.62-4.06A6.79,6.79,0,0,0,196.18,290.61Zm55.52,0a7,7,0,0,0-5-2.25A4.73,4.73,0,0,0,243,289.8a4.82,4.82,0,0,0-1.53,3.43,7,7,0,0,0,2.35,5.15,6.65,6.65,0,0,0,4.87,2.25,5.12,5.12,0,0,0,3.61-1.35,5.22,5.22,0,0,0,1.63-4.06A6.76,6.76,0,0,0,251.7,290.61Zm17.34-.45a3.68,3.68,0,0,0-3.07-1.62,4.09,4.09,0,0,0-3,1.26,5.14,5.14,0,0,0-1.18,3.34v4.79a3.45,3.45,0,0,0,.91,2.43,3.32,3.32,0,0,0,2.34.82,4.25,4.25,0,0,0,3.71-2.26,9,9,0,0,0,1.35-4.88A6.8,6.8,0,0,0,269,290.16Zm10.83,20.13c-.54-1-1.17-1.53-1.9-1.53s-.81.36-.81.72v.18a.17.17,0,0,0,.27,0,.09.09,0,0,1,.09-.09c0-.09.09-.18.27-.18s.18,0,.27.27c.09.09.09.18.09.36a.7.7,0,0,1-.09.27.78.78,0,0,1-.27.55,1.2,1.2,0,0,1-.72.27,1.25,1.25,0,0,1-.9-.45,1.86,1.86,0,0,1-.27-.46,7.9,7.9,0,0,0-.45,1.54,5.86,5.86,0,0,0-.18,1.72,8,8,0,0,0,.81,3.88,2.19,2.19,0,0,0,2,1.35,2.35,2.35,0,0,0,1.9-1,5.84,5.84,0,0,0,.81-3.43A9,9,0,0,0,279.87,310.29Zm5-16.34a5.11,5.11,0,0,0-3.16-1,4,4,0,0,0-2.8,1.08,3,3,0,0,0-1.18,2.53,3.41,3.41,0,0,0,1.18,2.71,4.65,4.65,0,0,0,6,0,3.49,3.49,0,0,0,1.17-2.8A3,3,0,0,0,284.84,294Zm0,0a5.11,5.11,0,0,0-3.16-1,4,4,0,0,0-2.8,1.08,3,3,0,0,0-1.18,2.53,3.41,3.41,0,0,0,1.18,2.71,4.65,4.65,0,0,0,6,0,3.49,3.49,0,0,0,1.17-2.8A3,3,0,0,0,284.84,294Zm-5,16.34c-.54-1-1.17-1.53-1.9-1.53s-.81.36-.81.72v.18a.17.17,0,0,0,.27,0,.09.09,0,0,1,.09-.09c0-.09.09-.18.27-.18s.18,0,.27.27c.09.09.09.18.09.36a.7.7,0,0,1-.09.27.78.78,0,0,1-.27.55,1.2,1.2,0,0,1-.72.27,1.25,1.25,0,0,1-.9-.45,1.86,1.86,0,0,1-.27-.46,7.9,7.9,0,0,0-.45,1.54,5.86,5.86,0,0,0-.18,1.72,8,8,0,0,0,.81,3.88,2.19,2.19,0,0,0,2,1.35,2.35,2.35,0,0,0,1.9-1,5.84,5.84,0,0,0,.81-3.43A9,9,0,0,0,279.87,310.29ZM269,290.16a3.68,3.68,0,0,0-3.07-1.62,4.09,4.09,0,0,0-3,1.26,5.14,5.14,0,0,0-1.18,3.34v4.79a3.45,3.45,0,0,0,.91,2.43,3.32,3.32,0,0,0,2.34.82,4.25,4.25,0,0,0,3.71-2.26,9,9,0,0,0,1.35-4.88A6.8,6.8,0,0,0,269,290.16Zm-17.34.45a7,7,0,0,0-5-2.25A4.73,4.73,0,0,0,243,289.8a4.82,4.82,0,0,0-1.53,3.43,7,7,0,0,0,2.35,5.15,6.65,6.65,0,0,0,4.87,2.25,5.12,5.12,0,0,0,3.61-1.35,5.22,5.22,0,0,0,1.63-4.06A6.76,6.76,0,0,0,251.7,290.61Zm-55.52,0a7.09,7.09,0,0,0-5.15-2.25,5,5,0,0,0-3.61,1.44,4.72,4.72,0,0,0-1.44,3.43,7,7,0,0,0,2.25,5.15,6.86,6.86,0,0,0,5,2.25,5.13,5.13,0,0,0,3.61-1.35,5.24,5.24,0,0,0,1.62-4.06A6.79,6.79,0,0,0,196.18,290.61Zm0,0a7.09,7.09,0,0,0-5.15-2.25,5,5,0,0,0-3.61,1.44,4.72,4.72,0,0,0-1.44,3.43,7,7,0,0,0,2.25,5.15,6.86,6.86,0,0,0,5,2.25,5.13,5.13,0,0,0,3.61-1.35,5.24,5.24,0,0,0,1.62-4.06A6.79,6.79,0,0,0,196.18,290.61Zm55.52,0a7,7,0,0,0-5-2.25A4.73,4.73,0,0,0,243,289.8a4.82,4.82,0,0,0-1.53,3.43,7,7,0,0,0,2.35,5.15,6.65,6.65,0,0,0,4.87,2.25,5.12,5.12,0,0,0,3.61-1.35,5.22,5.22,0,0,0,1.63-4.06A6.76,6.76,0,0,0,251.7,290.61Zm17.34-.45a3.68,3.68,0,0,0-3.07-1.62,4.09,4.09,0,0,0-3,1.26,5.14,5.14,0,0,0-1.18,3.34v4.79a3.45,3.45,0,0,0,.91,2.43,3.32,3.32,0,0,0,2.34.82,4.25,4.25,0,0,0,3.71-2.26,9,9,0,0,0,1.35-4.88A6.8,6.8,0,0,0,269,290.16Zm10.83,20.13c-.54-1-1.17-1.53-1.9-1.53s-.81.36-.81.72v.18a.17.17,0,0,0,.27,0,.09.09,0,0,1,.09-.09c0-.09.09-.18.27-.18s.18,0,.27.27c.09.09.09.18.09.36a.7.7,0,0,1-.09.27.78.78,0,0,1-.27.55,1.2,1.2,0,0,1-.72.27,1.25,1.25,0,0,1-.9-.45,1.86,1.86,0,0,1-.27-.46,7.9,7.9,0,0,0-.45,1.54,5.86,5.86,0,0,0-.18,1.72,8,8,0,0,0,.81,3.88,2.19,2.19,0,0,0,2,1.35,2.35,2.35,0,0,0,1.9-1,5.84,5.84,0,0,0,.81-3.43A9,9,0,0,0,279.87,310.29Zm5-16.34a5.11,5.11,0,0,0-3.16-1,4,4,0,0,0-2.8,1.08,3,3,0,0,0-1.18,2.53,3.41,3.41,0,0,0,1.18,2.71,4.65,4.65,0,0,0,6,0,3.49,3.49,0,0,0,1.17-2.8A3,3,0,0,0,284.84,294Zm0,0a5.11,5.11,0,0,0-3.16-1,4,4,0,0,0-2.8,1.08,3,3,0,0,0-1.18,2.53,3.41,3.41,0,0,0,1.18,2.71,4.65,4.65,0,0,0,6,0,3.49,3.49,0,0,0,1.17-2.8A3,3,0,0,0,284.84,294Zm-5,16.34c-.54-1-1.17-1.53-1.9-1.53s-.81.36-.81.72v.18a.17.17,0,0,0,.27,0,.09.09,0,0,1,.09-.09c0-.09.09-.18.27-.18s.18,0,.27.27c.09.09.09.18.09.36a.7.7,0,0,1-.09.27.78.78,0,0,1-.27.55,1.2,1.2,0,0,1-.72.27,1.25,1.25,0,0,1-.9-.45,1.86,1.86,0,0,1-.27-.46,7.9,7.9,0,0,0-.45,1.54,5.86,5.86,0,0,0-.18,1.72,8,8,0,0,0,.81,3.88,2.19,2.19,0,0,0,2,1.35,2.35,2.35,0,0,0,1.9-1,5.84,5.84,0,0,0,.81-3.43A9,9,0,0,0,279.87,310.29ZM269,290.16a3.68,3.68,0,0,0-3.07-1.62,4.09,4.09,0,0,0-3,1.26,5.14,5.14,0,0,0-1.18,3.34v4.79a3.45,3.45,0,0,0,.91,2.43,3.32,3.32,0,0,0,2.34.82,4.25,4.25,0,0,0,3.71-2.26,9,9,0,0,0,1.35-4.88A6.8,6.8,0,0,0,269,290.16Zm-17.34.45a7,7,0,0,0-5-2.25A4.73,4.73,0,0,0,243,289.8a4.82,4.82,0,0,0-1.53,3.43,7,7,0,0,0,2.35,5.15,6.65,6.65,0,0,0,4.87,2.25,5.12,5.12,0,0,0,3.61-1.35,5.22,5.22,0,0,0,1.63-4.06A6.76,6.76,0,0,0,251.7,290.61Zm-55.52,0a7.09,7.09,0,0,0-5.15-2.25,5,5,0,0,0-3.61,1.44,4.72,4.72,0,0,0-1.44,3.43,7,7,0,0,0,2.25,5.15,6.86,6.86,0,0,0,5,2.25,5.13,5.13,0,0,0,3.61-1.35,5.24,5.24,0,0,0,1.62-4.06A6.79,6.79,0,0,0,196.18,290.61Zm0,0a7.09,7.09,0,0,0-5.15-2.25,5,5,0,0,0-3.61,1.44,4.72,4.72,0,0,0-1.44,3.43,7,7,0,0,0,2.25,5.15,6.86,6.86,0,0,0,5,2.25,5.13,5.13,0,0,0,3.61-1.35,5.24,5.24,0,0,0,1.62-4.06A6.79,6.79,0,0,0,196.18,290.61Zm55.52,0a7,7,0,0,0-5-2.25A4.73,4.73,0,0,0,243,289.8a4.82,4.82,0,0,0-1.53,3.43,7,7,0,0,0,2.35,5.15,6.65,6.65,0,0,0,4.87,2.25,5.12,5.12,0,0,0,3.61-1.35,5.22,5.22,0,0,0,1.63-4.06A6.76,6.76,0,0,0,251.7,290.61Zm17.34-.45a3.68,3.68,0,0,0-3.07-1.62,4.09,4.09,0,0,0-3,1.26,5.14,5.14,0,0,0-1.18,3.34v4.79a3.45,3.45,0,0,0,.91,2.43,3.32,3.32,0,0,0,2.34.82,4.25,4.25,0,0,0,3.71-2.26,9,9,0,0,0,1.35-4.88A6.8,6.8,0,0,0,269,290.16Zm10.83,20.13c-.54-1-1.17-1.53-1.9-1.53s-.81.36-.81.72v.18a.17.17,0,0,0,.27,0,.09.09,0,0,1,.09-.09c0-.09.09-.18.27-.18s.18,0,.27.27c.09.09.09.18.09.36a.7.7,0,0,1-.09.27.78.78,0,0,1-.27.55,1.2,1.2,0,0,1-.72.27,1.25,1.25,0,0,1-.9-.45,1.86,1.86,0,0,1-.27-.46,7.9,7.9,0,0,0-.45,1.54,5.86,5.86,0,0,0-.18,1.72,8,8,0,0,0,.81,3.88,2.19,2.19,0,0,0,2,1.35,2.35,2.35,0,0,0,1.9-1,5.84,5.84,0,0,0,.81-3.43A9,9,0,0,0,279.87,310.29Zm5-16.34a5.11,5.11,0,0,0-3.16-1,4,4,0,0,0-2.8,1.08,3,3,0,0,0-1.18,2.53,3.41,3.41,0,0,0,1.18,2.71,4.65,4.65,0,0,0,6,0,3.49,3.49,0,0,0,1.17-2.8A3,3,0,0,0,284.84,294Zm0,0a5.11,5.11,0,0,0-3.16-1,4,4,0,0,0-2.8,1.08,3,3,0,0,0-1.18,2.53,3.41,3.41,0,0,0,1.18,2.71,4.65,4.65,0,0,0,6,0,3.49,3.49,0,0,0,1.17-2.8A3,3,0,0,0,284.84,294Zm-5,16.34c-.54-1-1.17-1.53-1.9-1.53s-.81.36-.81.72v.18a.17.17,0,0,0,.27,0,.09.09,0,0,1,.09-.09c0-.09.09-.18.27-.18s.18,0,.27.27c.09.09.09.18.09.36a.7.7,0,0,1-.09.27.78.78,0,0,1-.27.55,1.2,1.2,0,0,1-.72.27,1.25,1.25,0,0,1-.9-.45,1.86,1.86,0,0,1-.27-.46,7.9,7.9,0,0,0-.45,1.54,5.86,5.86,0,0,0-.18,1.72,8,8,0,0,0,.81,3.88,2.19,2.19,0,0,0,2,1.35,2.35,2.35,0,0,0,1.9-1,5.84,5.84,0,0,0,.81-3.43A9,9,0,0,0,279.87,310.29ZM269,290.16a3.68,3.68,0,0,0-3.07-1.62,4.09,4.09,0,0,0-3,1.26,5.14,5.14,0,0,0-1.18,3.34v4.79a3.45,3.45,0,0,0,.91,2.43,3.32,3.32,0,0,0,2.34.82,4.25,4.25,0,0,0,3.71-2.26,9,9,0,0,0,1.35-4.88A6.8,6.8,0,0,0,269,290.16Zm-17.34.45a7,7,0,0,0-5-2.25A4.73,4.73,0,0,0,243,289.8a4.82,4.82,0,0,0-1.53,3.43,7,7,0,0,0,2.35,5.15,6.65,6.65,0,0,0,4.87,2.25,5.12,5.12,0,0,0,3.61-1.35,5.22,5.22,0,0,0,1.63-4.06A6.76,6.76,0,0,0,251.7,290.61Zm-55.52,0a7.09,7.09,0,0,0-5.15-2.25,5,5,0,0,0-3.61,1.44,4.72,4.72,0,0,0-1.44,3.43,7,7,0,0,0,2.25,5.15,6.86,6.86,0,0,0,5,2.25,5.13,5.13,0,0,0,3.61-1.35,5.24,5.24,0,0,0,1.62-4.06A6.79,6.79,0,0,0,196.18,290.61Zm0,0a7.09,7.09,0,0,0-5.15-2.25,5,5,0,0,0-3.61,1.44,4.72,4.72,0,0,0-1.44,3.43,7,7,0,0,0,2.25,5.15,6.86,6.86,0,0,0,5,2.25,5.13,5.13,0,0,0,3.61-1.35,5.24,5.24,0,0,0,1.62-4.06A6.79,6.79,0,0,0,196.18,290.61Zm55.52,0a7,7,0,0,0-5-2.25A4.73,4.73,0,0,0,243,289.8a4.82,4.82,0,0,0-1.53,3.43,7,7,0,0,0,2.35,5.15,6.65,6.65,0,0,0,4.87,2.25,5.12,5.12,0,0,0,3.61-1.35,5.22,5.22,0,0,0,1.63-4.06A6.76,6.76,0,0,0,251.7,290.61Zm17.34-.45a3.68,3.68,0,0,0-3.07-1.62,4.09,4.09,0,0,0-3,1.26,5.14,5.14,0,0,0-1.18,3.34v4.79a3.45,3.45,0,0,0,.91,2.43,3.32,3.32,0,0,0,2.34.82,4.25,4.25,0,0,0,3.71-2.26,9,9,0,0,0,1.35-4.88A6.8,6.8,0,0,0,269,290.16Zm10.83,20.13c-.54-1-1.17-1.53-1.9-1.53s-.81.36-.81.72v.18a.17.17,0,0,0,.27,0,.09.09,0,0,1,.09-.09c0-.09.09-.18.27-.18s.18,0,.27.27c.09.09.09.18.09.36a.7.7,0,0,1-.09.27.78.78,0,0,1-.27.55,1.2,1.2,0,0,1-.72.27,1.25,1.25,0,0,1-.9-.45,1.86,1.86,0,0,1-.27-.46,7.9,7.9,0,0,0-.45,1.54,5.86,5.86,0,0,0-.18,1.72,8,8,0,0,0,.81,3.88,2.19,2.19,0,0,0,2,1.35,2.35,2.35,0,0,0,1.9-1,5.84,5.84,0,0,0,.81-3.43A9,9,0,0,0,279.87,310.29Zm5-16.34a5.11,5.11,0,0,0-3.16-1,4,4,0,0,0-2.8,1.08,3,3,0,0,0-1.18,2.53,3.41,3.41,0,0,0,1.18,2.71,4.65,4.65,0,0,0,6,0,3.49,3.49,0,0,0,1.17-2.8A3,3,0,0,0,284.84,294Zm0,0a5.11,5.11,0,0,0-3.16-1,4,4,0,0,0-2.8,1.08,3,3,0,0,0-1.18,2.53,3.41,3.41,0,0,0,1.18,2.71,4.65,4.65,0,0,0,6,0,3.49,3.49,0,0,0,1.17-2.8A3,3,0,0,0,284.84,294Zm-5,16.34c-.54-1-1.17-1.53-1.9-1.53s-.81.36-.81.72v.18a.17.17,0,0,0,.27,0,.09.09,0,0,1,.09-.09c0-.09.09-.18.27-.18s.18,0,.27.27c.09.09.09.18.09.36a.7.7,0,0,1-.09.27.78.78,0,0,1-.27.55,1.2,1.2,0,0,1-.72.27,1.25,1.25,0,0,1-.9-.45,1.86,1.86,0,0,1-.27-.46,7.9,7.9,0,0,0-.45,1.54,5.86,5.86,0,0,0-.18,1.72,8,8,0,0,0,.81,3.88,2.19,2.19,0,0,0,2,1.35,2.35,2.35,0,0,0,1.9-1,5.84,5.84,0,0,0,.81-3.43A9,9,0,0,0,279.87,310.29ZM269,290.16a3.68,3.68,0,0,0-3.07-1.62,4.09,4.09,0,0,0-3,1.26,5.14,5.14,0,0,0-1.18,3.34v4.79a3.45,3.45,0,0,0,.91,2.43,3.32,3.32,0,0,0,2.34.82,4.25,4.25,0,0,0,3.71-2.26,9,9,0,0,0,1.35-4.88A6.8,6.8,0,0,0,269,290.16Zm-17.34.45a7,7,0,0,0-5-2.25A4.73,4.73,0,0,0,243,289.8a4.82,4.82,0,0,0-1.53,3.43,7,7,0,0,0,2.35,5.15,6.65,6.65,0,0,0,4.87,2.25,5.12,5.12,0,0,0,3.61-1.35,5.22,5.22,0,0,0,1.63-4.06A6.76,6.76,0,0,0,251.7,290.61Zm-55.52,0a7.09,7.09,0,0,0-5.15-2.25,5,5,0,0,0-3.61,1.44,4.72,4.72,0,0,0-1.44,3.43,7,7,0,0,0,2.25,5.15,6.86,6.86,0,0,0,5,2.25,5.13,5.13,0,0,0,3.61-1.35,5.24,5.24,0,0,0,1.62-4.06A6.79,6.79,0,0,0,196.18,290.61Zm0,0a7.09,7.09,0,0,0-5.15-2.25,5,5,0,0,0-3.61,1.44,4.72,4.72,0,0,0-1.44,3.43,7,7,0,0,0,2.25,5.15,6.86,6.86,0,0,0,5,2.25,5.13,5.13,0,0,0,3.61-1.35,5.24,5.24,0,0,0,1.62-4.06A6.79,6.79,0,0,0,196.18,290.61Zm55.52,0a7,7,0,0,0-5-2.25A4.73,4.73,0,0,0,243,289.8a4.82,4.82,0,0,0-1.53,3.43,7,7,0,0,0,2.35,5.15,6.65,6.65,0,0,0,4.87,2.25,5.12,5.12,0,0,0,3.61-1.35,5.22,5.22,0,0,0,1.63-4.06A6.76,6.76,0,0,0,251.7,290.61Zm17.34-.45a3.68,3.68,0,0,0-3.07-1.62,4.09,4.09,0,0,0-3,1.26,5.14,5.14,0,0,0-1.18,3.34v4.79a3.45,3.45,0,0,0,.91,2.43,3.32,3.32,0,0,0,2.34.82,4.25,4.25,0,0,0,3.71-2.26,9,9,0,0,0,1.35-4.88A6.8,6.8,0,0,0,269,290.16Zm10.83,20.13c-.54-1-1.17-1.53-1.9-1.53s-.81.36-.81.72v.18a.17.17,0,0,0,.27,0,.09.09,0,0,1,.09-.09c0-.09.09-.18.27-.18s.18,0,.27.27c.09.09.09.18.09.36a.7.7,0,0,1-.09.27.78.78,0,0,1-.27.55,1.2,1.2,0,0,1-.72.27,1.25,1.25,0,0,1-.9-.45,1.86,1.86,0,0,1-.27-.46,7.9,7.9,0,0,0-.45,1.54,5.86,5.86,0,0,0-.18,1.72,8,8,0,0,0,.81,3.88,2.19,2.19,0,0,0,2,1.35,2.35,2.35,0,0,0,1.9-1,5.84,5.84,0,0,0,.81-3.43A9,9,0,0,0,279.87,310.29Zm5-16.34a5.11,5.11,0,0,0-3.16-1,4,4,0,0,0-2.8,1.08,3,3,0,0,0-1.18,2.53,3.41,3.41,0,0,0,1.18,2.71,4.65,4.65,0,0,0,6,0,3.49,3.49,0,0,0,1.17-2.8A3,3,0,0,0,284.84,294Zm0,0a5.11,5.11,0,0,0-3.16-1,4,4,0,0,0-2.8,1.08,3,3,0,0,0-1.18,2.53,3.41,3.41,0,0,0,1.18,2.71,4.65,4.65,0,0,0,6,0,3.49,3.49,0,0,0,1.17-2.8A3,3,0,0,0,284.84,294Zm-5,16.34c-.54-1-1.17-1.53-1.9-1.53s-.81.36-.81.72v.18a.17.17,0,0,0,.27,0,.09.09,0,0,1,.09-.09c0-.09.09-.18.27-.18s.18,0,.27.27c.09.09.09.18.09.36a.7.7,0,0,1-.09.27.78.78,0,0,1-.27.55,1.2,1.2,0,0,1-.72.27,1.25,1.25,0,0,1-.9-.45,1.86,1.86,0,0,1-.27-.46,7.9,7.9,0,0,0-.45,1.54,5.86,5.86,0,0,0-.18,1.72,8,8,0,0,0,.81,3.88,2.19,2.19,0,0,0,2,1.35,2.35,2.35,0,0,0,1.9-1,5.84,5.84,0,0,0,.81-3.43A9,9,0,0,0,279.87,310.29ZM269,290.16a3.68,3.68,0,0,0-3.07-1.62,4.09,4.09,0,0,0-3,1.26,5.14,5.14,0,0,0-1.18,3.34v4.79a3.45,3.45,0,0,0,.91,2.43,3.32,3.32,0,0,0,2.34.82,4.25,4.25,0,0,0,3.71-2.26,9,9,0,0,0,1.35-4.88A6.8,6.8,0,0,0,269,290.16Zm-17.34.45a7,7,0,0,0-5-2.25A4.73,4.73,0,0,0,243,289.8a4.82,4.82,0,0,0-1.53,3.43,7,7,0,0,0,2.35,5.15,6.65,6.65,0,0,0,4.87,2.25,5.12,5.12,0,0,0,3.61-1.35,5.22,5.22,0,0,0,1.63-4.06A6.76,6.76,0,0,0,251.7,290.61Zm-55.52,0a7.09,7.09,0,0,0-5.15-2.25,5,5,0,0,0-3.61,1.44,4.72,4.72,0,0,0-1.44,3.43,7,7,0,0,0,2.25,5.15,6.86,6.86,0,0,0,5,2.25,5.13,5.13,0,0,0,3.61-1.35,5.24,5.24,0,0,0,1.62-4.06A6.79,6.79,0,0,0,196.18,290.61Zm0,0a7.09,7.09,0,0,0-5.15-2.25,5,5,0,0,0-3.61,1.44,4.72,4.72,0,0,0-1.44,3.43,7,7,0,0,0,2.25,5.15,6.86,6.86,0,0,0,5,2.25,5.13,5.13,0,0,0,3.61-1.35,5.24,5.24,0,0,0,1.62-4.06A6.79,6.79,0,0,0,196.18,290.61Zm55.52,0a7,7,0,0,0-5-2.25A4.73,4.73,0,0,0,243,289.8a4.82,4.82,0,0,0-1.53,3.43,7,7,0,0,0,2.35,5.15,6.65,6.65,0,0,0,4.87,2.25,5.12,5.12,0,0,0,3.61-1.35,5.22,5.22,0,0,0,1.63-4.06A6.76,6.76,0,0,0,251.7,290.61Zm17.34-.45a3.68,3.68,0,0,0-3.07-1.62,4.09,4.09,0,0,0-3,1.26,5.14,5.14,0,0,0-1.18,3.34v4.79a3.45,3.45,0,0,0,.91,2.43,3.32,3.32,0,0,0,2.34.82,4.25,4.25,0,0,0,3.71-2.26,9,9,0,0,0,1.35-4.88A6.8,6.8,0,0,0,269,290.16Zm10.83,20.13c-.54-1-1.17-1.53-1.9-1.53s-.81.36-.81.72v.18a.17.17,0,0,0,.27,0,.09.09,0,0,1,.09-.09c0-.09.09-.18.27-.18s.18,0,.27.27c.09.09.09.18.09.36a.7.7,0,0,1-.09.27.78.78,0,0,1-.27.55,1.2,1.2,0,0,1-.72.27,1.25,1.25,0,0,1-.9-.45,1.86,1.86,0,0,1-.27-.46,7.9,7.9,0,0,0-.45,1.54,5.86,5.86,0,0,0-.18,1.72,8,8,0,0,0,.81,3.88,2.19,2.19,0,0,0,2,1.35,2.35,2.35,0,0,0,1.9-1,5.84,5.84,0,0,0,.81-3.43A9,9,0,0,0,279.87,310.29Zm5-16.34a5.11,5.11,0,0,0-3.16-1,4,4,0,0,0-2.8,1.08,3,3,0,0,0-1.18,2.53,3.41,3.41,0,0,0,1.18,2.71,4.65,4.65,0,0,0,6,0,3.49,3.49,0,0,0,1.17-2.8A3,3,0,0,0,284.84,294Zm0,0a5.11,5.11,0,0,0-3.16-1,4,4,0,0,0-2.8,1.08,3,3,0,0,0-1.18,2.53,3.41,3.41,0,0,0,1.18,2.71,4.65,4.65,0,0,0,6,0,3.49,3.49,0,0,0,1.17-2.8A3,3,0,0,0,284.84,294Zm-5,16.34c-.54-1-1.17-1.53-1.9-1.53s-.81.36-.81.72v.18a.17.17,0,0,0,.27,0,.09.09,0,0,1,.09-.09c0-.09.09-.18.27-.18s.18,0,.27.27c.09.09.09.18.09.36a.7.7,0,0,1-.09.27.78.78,0,0,1-.27.55,1.2,1.2,0,0,1-.72.27,1.25,1.25,0,0,1-.9-.45,1.86,1.86,0,0,1-.27-.46,7.9,7.9,0,0,0-.45,1.54,5.86,5.86,0,0,0-.18,1.72,8,8,0,0,0,.81,3.88,2.19,2.19,0,0,0,2,1.35,2.35,2.35,0,0,0,1.9-1,5.84,5.84,0,0,0,.81-3.43A9,9,0,0,0,279.87,310.29ZM269,290.16a3.68,3.68,0,0,0-3.07-1.62,4.09,4.09,0,0,0-3,1.26,5.14,5.14,0,0,0-1.18,3.34v4.79a3.45,3.45,0,0,0,.91,2.43,3.32,3.32,0,0,0,2.34.82,4.25,4.25,0,0,0,3.71-2.26,9,9,0,0,0,1.35-4.88A6.8,6.8,0,0,0,269,290.16Zm-17.34.45a7,7,0,0,0-5-2.25A4.73,4.73,0,0,0,243,289.8a4.82,4.82,0,0,0-1.53,3.43,7,7,0,0,0,2.35,5.15,6.65,6.65,0,0,0,4.87,2.25,5.12,5.12,0,0,0,3.61-1.35,5.22,5.22,0,0,0,1.63-4.06A6.76,6.76,0,0,0,251.7,290.61Zm-55.52,0a7.09,7.09,0,0,0-5.15-2.25,5,5,0,0,0-3.61,1.44,4.72,4.72,0,0,0-1.44,3.43,7,7,0,0,0,2.25,5.15,6.86,6.86,0,0,0,5,2.25,5.13,5.13,0,0,0,3.61-1.35,5.24,5.24,0,0,0,1.62-4.06A6.79,6.79,0,0,0,196.18,290.61Zm0,0a7.09,7.09,0,0,0-5.15-2.25,5,5,0,0,0-3.61,1.44,4.72,4.72,0,0,0-1.44,3.43,7,7,0,0,0,2.25,5.15,6.86,6.86,0,0,0,5,2.25,5.13,5.13,0,0,0,3.61-1.35,5.24,5.24,0,0,0,1.62-4.06A6.79,6.79,0,0,0,196.18,290.61Zm55.52,0a7,7,0,0,0-5-2.25A4.73,4.73,0,0,0,243,289.8a4.82,4.82,0,0,0-1.53,3.43,7,7,0,0,0,2.35,5.15,6.65,6.65,0,0,0,4.87,2.25,5.12,5.12,0,0,0,3.61-1.35,5.22,5.22,0,0,0,1.63-4.06A6.76,6.76,0,0,0,251.7,290.61Zm17.34-.45a3.68,3.68,0,0,0-3.07-1.62,4.09,4.09,0,0,0-3,1.26,5.14,5.14,0,0,0-1.18,3.34v4.79a3.45,3.45,0,0,0,.91,2.43,3.32,3.32,0,0,0,2.34.82,4.25,4.25,0,0,0,3.71-2.26,9,9,0,0,0,1.35-4.88A6.8,6.8,0,0,0,269,290.16Zm10.83,20.13c-.54-1-1.17-1.53-1.9-1.53s-.81.36-.81.72v.18a.17.17,0,0,0,.27,0,.09.09,0,0,1,.09-.09c0-.09.09-.18.27-.18s.18,0,.27.27c.09.09.09.18.09.36a.7.7,0,0,1-.09.27.78.78,0,0,1-.27.55,1.2,1.2,0,0,1-.72.27,1.25,1.25,0,0,1-.9-.45,1.86,1.86,0,0,1-.27-.46,7.9,7.9,0,0,0-.45,1.54,5.86,5.86,0,0,0-.18,1.72,8,8,0,0,0,.81,3.88,2.19,2.19,0,0,0,2,1.35,2.35,2.35,0,0,0,1.9-1,5.84,5.84,0,0,0,.81-3.43A9,9,0,0,0,279.87,310.29Zm5-16.34a5.11,5.11,0,0,0-3.16-1,4,4,0,0,0-2.8,1.08,3,3,0,0,0-1.18,2.53,3.41,3.41,0,0,0,1.18,2.71,4.65,4.65,0,0,0,6,0,3.49,3.49,0,0,0,1.17-2.8A3,3,0,0,0,284.84,294Zm0,0a5.11,5.11,0,0,0-3.16-1,4,4,0,0,0-2.8,1.08,3,3,0,0,0-1.18,2.53,3.41,3.41,0,0,0,1.18,2.71,4.65,4.65,0,0,0,6,0,3.49,3.49,0,0,0,1.17-2.8A3,3,0,0,0,284.84,294Zm-5,16.34c-.54-1-1.17-1.53-1.9-1.53s-.81.36-.81.72v.18a.17.17,0,0,0,.27,0,.09.09,0,0,1,.09-.09c0-.09.09-.18.27-.18s.18,0,.27.27c.09.09.09.18.09.36a.7.7,0,0,1-.09.27.78.78,0,0,1-.27.55,1.2,1.2,0,0,1-.72.27,1.25,1.25,0,0,1-.9-.45,1.86,1.86,0,0,1-.27-.46,7.9,7.9,0,0,0-.45,1.54,5.86,5.86,0,0,0-.18,1.72,8,8,0,0,0,.81,3.88,2.19,2.19,0,0,0,2,1.35,2.35,2.35,0,0,0,1.9-1,5.84,5.84,0,0,0,.81-3.43A9,9,0,0,0,279.87,310.29ZM269,290.16a3.68,3.68,0,0,0-3.07-1.62,4.09,4.09,0,0,0-3,1.26,5.14,5.14,0,0,0-1.18,3.34v4.79a3.45,3.45,0,0,0,.91,2.43,3.32,3.32,0,0,0,2.34.82,4.25,4.25,0,0,0,3.71-2.26,9,9,0,0,0,1.35-4.88A6.8,6.8,0,0,0,269,290.16Zm-17.34.45a7,7,0,0,0-5-2.25A4.73,4.73,0,0,0,243,289.8a4.82,4.82,0,0,0-1.53,3.43,7,7,0,0,0,2.35,5.15,6.65,6.65,0,0,0,4.87,2.25,5.12,5.12,0,0,0,3.61-1.35,5.22,5.22,0,0,0,1.63-4.06A6.76,6.76,0,0,0,251.7,290.61Zm-55.52,0a7.09,7.09,0,0,0-5.15-2.25,5,5,0,0,0-3.61,1.44,4.72,4.72,0,0,0-1.44,3.43,7,7,0,0,0,2.25,5.15,6.86,6.86,0,0,0,5,2.25,5.13,5.13,0,0,0,3.61-1.35,5.24,5.24,0,0,0,1.62-4.06A6.79,6.79,0,0,0,196.18,290.61Zm0,0a7.09,7.09,0,0,0-5.15-2.25,5,5,0,0,0-3.61,1.44,4.72,4.72,0,0,0-1.44,3.43,7,7,0,0,0,2.25,5.15,6.86,6.86,0,0,0,5,2.25,5.13,5.13,0,0,0,3.61-1.35,5.24,5.24,0,0,0,1.62-4.06A6.79,6.79,0,0,0,196.18,290.61Zm55.52,0a7,7,0,0,0-5-2.25A4.73,4.73,0,0,0,243,289.8a4.82,4.82,0,0,0-1.53,3.43,7,7,0,0,0,2.35,5.15,6.65,6.65,0,0,0,4.87,2.25,5.12,5.12,0,0,0,3.61-1.35,5.22,5.22,0,0,0,1.63-4.06A6.76,6.76,0,0,0,251.7,290.61Zm17.34-.45a3.68,3.68,0,0,0-3.07-1.62,4.09,4.09,0,0,0-3,1.26,5.14,5.14,0,0,0-1.18,3.34v4.79a3.45,3.45,0,0,0,.91,2.43,3.32,3.32,0,0,0,2.34.82,4.25,4.25,0,0,0,3.71-2.26,9,9,0,0,0,1.35-4.88A6.8,6.8,0,0,0,269,290.16Zm10.83,20.13c-.54-1-1.17-1.53-1.9-1.53s-.81.36-.81.72v.18a.17.17,0,0,0,.27,0,.09.09,0,0,1,.09-.09c0-.09.09-.18.27-.18s.18,0,.27.27c.09.09.09.18.09.36a.7.7,0,0,1-.09.27.78.78,0,0,1-.27.55,1.2,1.2,0,0,1-.72.27,1.25,1.25,0,0,1-.9-.45,1.86,1.86,0,0,1-.27-.46,7.9,7.9,0,0,0-.45,1.54,5.86,5.86,0,0,0-.18,1.72,8,8,0,0,0,.81,3.88,2.19,2.19,0,0,0,2,1.35,2.35,2.35,0,0,0,1.9-1,5.84,5.84,0,0,0,.81-3.43A9,9,0,0,0,279.87,310.29Zm5-16.34a5.11,5.11,0,0,0-3.16-1,4,4,0,0,0-2.8,1.08,3,3,0,0,0-1.18,2.53,3.41,3.41,0,0,0,1.18,2.71,4.65,4.65,0,0,0,6,0,3.49,3.49,0,0,0,1.17-2.8A3,3,0,0,0,284.84,294Zm0,0a5.11,5.11,0,0,0-3.16-1,4,4,0,0,0-2.8,1.08,3,3,0,0,0-1.18,2.53,3.41,3.41,0,0,0,1.18,2.71,4.65,4.65,0,0,0,6,0,3.49,3.49,0,0,0,1.17-2.8A3,3,0,0,0,284.84,294Zm-5,16.34c-.54-1-1.17-1.53-1.9-1.53s-.81.36-.81.72v.18a.17.17,0,0,0,.27,0,.09.09,0,0,1,.09-.09c0-.09.09-.18.27-.18s.18,0,.27.27c.09.09.09.18.09.36a.7.7,0,0,1-.09.27.78.78,0,0,1-.27.55,1.2,1.2,0,0,1-.72.27,1.25,1.25,0,0,1-.9-.45,1.86,1.86,0,0,1-.27-.46,7.9,7.9,0,0,0-.45,1.54,5.86,5.86,0,0,0-.18,1.72,8,8,0,0,0,.81,3.88,2.19,2.19,0,0,0,2,1.35,2.35,2.35,0,0,0,1.9-1,5.84,5.84,0,0,0,.81-3.43A9,9,0,0,0,279.87,310.29ZM269,290.16a3.68,3.68,0,0,0-3.07-1.62,4.09,4.09,0,0,0-3,1.26,5.14,5.14,0,0,0-1.18,3.34v4.79a3.45,3.45,0,0,0,.91,2.43,3.32,3.32,0,0,0,2.34.82,4.25,4.25,0,0,0,3.71-2.26,9,9,0,0,0,1.35-4.88A6.8,6.8,0,0,0,269,290.16Zm-17.34.45a7,7,0,0,0-5-2.25A4.73,4.73,0,0,0,243,289.8a4.82,4.82,0,0,0-1.53,3.43,7,7,0,0,0,2.35,5.15,6.65,6.65,0,0,0,4.87,2.25,5.12,5.12,0,0,0,3.61-1.35,5.22,5.22,0,0,0,1.63-4.06A6.76,6.76,0,0,0,251.7,290.61Zm-55.52,0a7.09,7.09,0,0,0-5.15-2.25,5,5,0,0,0-3.61,1.44,4.72,4.72,0,0,0-1.44,3.43,7,7,0,0,0,2.25,5.15,6.86,6.86,0,0,0,5,2.25,5.13,5.13,0,0,0,3.61-1.35,5.24,5.24,0,0,0,1.62-4.06A6.79,6.79,0,0,0,196.18,290.61Zm0,0a7.09,7.09,0,0,0-5.15-2.25,5,5,0,0,0-3.61,1.44,4.72,4.72,0,0,0-1.44,3.43,7,7,0,0,0,2.25,5.15,6.86,6.86,0,0,0,5,2.25,5.13,5.13,0,0,0,3.61-1.35,5.24,5.24,0,0,0,1.62-4.06A6.79,6.79,0,0,0,196.18,290.61Zm55.52,0a7,7,0,0,0-5-2.25A4.73,4.73,0,0,0,243,289.8a4.82,4.82,0,0,0-1.53,3.43,7,7,0,0,0,2.35,5.15,6.65,6.65,0,0,0,4.87,2.25,5.12,5.12,0,0,0,3.61-1.35,5.22,5.22,0,0,0,1.63-4.06A6.76,6.76,0,0,0,251.7,290.61Zm17.34-.45a3.68,3.68,0,0,0-3.07-1.62,4.09,4.09,0,0,0-3,1.26,5.14,5.14,0,0,0-1.18,3.34v4.79a3.45,3.45,0,0,0,.91,2.43,3.32,3.32,0,0,0,2.34.82,4.25,4.25,0,0,0,3.71-2.26,9,9,0,0,0,1.35-4.88A6.8,6.8,0,0,0,269,290.16Zm10.83,20.13c-.54-1-1.17-1.53-1.9-1.53s-.81.36-.81.72v.18a.17.17,0,0,0,.27,0,.09.09,0,0,1,.09-.09c0-.09.09-.18.27-.18s.18,0,.27.27c.09.09.09.18.09.36a.7.7,0,0,1-.09.27.78.78,0,0,1-.27.55,1.2,1.2,0,0,1-.72.27,1.25,1.25,0,0,1-.9-.45,1.86,1.86,0,0,1-.27-.46,7.9,7.9,0,0,0-.45,1.54,5.86,5.86,0,0,0-.18,1.72,8,8,0,0,0,.81,3.88,2.19,2.19,0,0,0,2,1.35,2.35,2.35,0,0,0,1.9-1,5.84,5.84,0,0,0,.81-3.43A9,9,0,0,0,279.87,310.29Zm5-16.34a5.11,5.11,0,0,0-3.16-1,4,4,0,0,0-2.8,1.08,3,3,0,0,0-1.18,2.53,3.41,3.41,0,0,0,1.18,2.71,4.65,4.65,0,0,0,6,0,3.49,3.49,0,0,0,1.17-2.8A3,3,0,0,0,284.84,294Zm0,0a5.11,5.11,0,0,0-3.16-1,4,4,0,0,0-2.8,1.08,3,3,0,0,0-1.18,2.53,3.41,3.41,0,0,0,1.18,2.71,4.65,4.65,0,0,0,6,0,3.49,3.49,0,0,0,1.17-2.8A3,3,0,0,0,284.84,294Zm-5,16.34c-.54-1-1.17-1.53-1.9-1.53s-.81.36-.81.72v.18a.17.17,0,0,0,.27,0,.09.09,0,0,1,.09-.09c0-.09.09-.18.27-.18s.18,0,.27.27c.09.09.09.18.09.36a.7.7,0,0,1-.09.27.78.78,0,0,1-.27.55,1.2,1.2,0,0,1-.72.27,1.25,1.25,0,0,1-.9-.45,1.86,1.86,0,0,1-.27-.46,7.9,7.9,0,0,0-.45,1.54,5.86,5.86,0,0,0-.18,1.72,8,8,0,0,0,.81,3.88,2.19,2.19,0,0,0,2,1.35,2.35,2.35,0,0,0,1.9-1,5.84,5.84,0,0,0,.81-3.43A9,9,0,0,0,279.87,310.29ZM269,290.16a3.68,3.68,0,0,0-3.07-1.62,4.09,4.09,0,0,0-3,1.26,5.14,5.14,0,0,0-1.18,3.34v4.79a3.45,3.45,0,0,0,.91,2.43,3.32,3.32,0,0,0,2.34.82,4.25,4.25,0,0,0,3.71-2.26,9,9,0,0,0,1.35-4.88A6.8,6.8,0,0,0,269,290.16Zm-17.34.45a7,7,0,0,0-5-2.25A4.73,4.73,0,0,0,243,289.8a4.82,4.82,0,0,0-1.53,3.43,7,7,0,0,0,2.35,5.15,6.65,6.65,0,0,0,4.87,2.25,5.12,5.12,0,0,0,3.61-1.35,5.22,5.22,0,0,0,1.63-4.06A6.76,6.76,0,0,0,251.7,290.61Zm-55.52,0a7.09,7.09,0,0,0-5.15-2.25,5,5,0,0,0-3.61,1.44,4.72,4.72,0,0,0-1.44,3.43,7,7,0,0,0,2.25,5.15,6.86,6.86,0,0,0,5,2.25,5.13,5.13,0,0,0,3.61-1.35,5.24,5.24,0,0,0,1.62-4.06A6.79,6.79,0,0,0,196.18,290.61Zm0,0a7.09,7.09,0,0,0-5.15-2.25,5,5,0,0,0-3.61,1.44,4.72,4.72,0,0,0-1.44,3.43,7,7,0,0,0,2.25,5.15,6.86,6.86,0,0,0,5,2.25,5.13,5.13,0,0,0,3.61-1.35,5.24,5.24,0,0,0,1.62-4.06A6.79,6.79,0,0,0,196.18,290.61Zm55.52,0a7,7,0,0,0-5-2.25A4.73,4.73,0,0,0,243,289.8a4.82,4.82,0,0,0-1.53,3.43,7,7,0,0,0,2.35,5.15,6.65,6.65,0,0,0,4.87,2.25,5.12,5.12,0,0,0,3.61-1.35,5.22,5.22,0,0,0,1.63-4.06A6.76,6.76,0,0,0,251.7,290.61Zm17.34-.45a3.68,3.68,0,0,0-3.07-1.62,4.09,4.09,0,0,0-3,1.26,5.14,5.14,0,0,0-1.18,3.34v4.79a3.45,3.45,0,0,0,.91,2.43,3.32,3.32,0,0,0,2.34.82,4.25,4.25,0,0,0,3.71-2.26,9,9,0,0,0,1.35-4.88A6.8,6.8,0,0,0,269,290.16Zm10.83,20.13c-.54-1-1.17-1.53-1.9-1.53s-.81.36-.81.72v.18a.17.17,0,0,0,.27,0,.09.09,0,0,1,.09-.09c0-.09.09-.18.27-.18s.18,0,.27.27c.09.09.09.18.09.36a.7.7,0,0,1-.09.27.78.78,0,0,1-.27.55,1.2,1.2,0,0,1-.72.27,1.25,1.25,0,0,1-.9-.45,1.86,1.86,0,0,1-.27-.46,7.9,7.9,0,0,0-.45,1.54,5.86,5.86,0,0,0-.18,1.72,8,8,0,0,0,.81,3.88,2.19,2.19,0,0,0,2,1.35,2.35,2.35,0,0,0,1.9-1,5.84,5.84,0,0,0,.81-3.43A9,9,0,0,0,279.87,310.29Zm5-16.34a5.11,5.11,0,0,0-3.16-1,4,4,0,0,0-2.8,1.08,3,3,0,0,0-1.18,2.53,3.41,3.41,0,0,0,1.18,2.71,4.65,4.65,0,0,0,6,0,3.49,3.49,0,0,0,1.17-2.8A3,3,0,0,0,284.84,294Zm0,0a5.11,5.11,0,0,0-3.16-1,4,4,0,0,0-2.8,1.08,3,3,0,0,0-1.18,2.53,3.41,3.41,0,0,0,1.18,2.71,4.65,4.65,0,0,0,6,0,3.49,3.49,0,0,0,1.17-2.8A3,3,0,0,0,284.84,294Zm-5,16.34c-.54-1-1.17-1.53-1.9-1.53s-.81.36-.81.72v.18a.17.17,0,0,0,.27,0,.09.09,0,0,1,.09-.09c0-.09.09-.18.27-.18s.18,0,.27.27c.09.09.09.18.09.36a.7.7,0,0,1-.09.27.78.78,0,0,1-.27.55,1.2,1.2,0,0,1-.72.27,1.25,1.25,0,0,1-.9-.45,1.86,1.86,0,0,1-.27-.46,7.9,7.9,0,0,0-.45,1.54,5.86,5.86,0,0,0-.18,1.72,8,8,0,0,0,.81,3.88,2.19,2.19,0,0,0,2,1.35,2.35,2.35,0,0,0,1.9-1,5.84,5.84,0,0,0,.81-3.43A9,9,0,0,0,279.87,310.29ZM269,290.16a3.68,3.68,0,0,0-3.07-1.62,4.09,4.09,0,0,0-3,1.26,5.14,5.14,0,0,0-1.18,3.34v4.79a3.45,3.45,0,0,0,.91,2.43,3.32,3.32,0,0,0,2.34.82,4.25,4.25,0,0,0,3.71-2.26,9,9,0,0,0,1.35-4.88A6.8,6.8,0,0,0,269,290.16Zm-17.34.45a7,7,0,0,0-5-2.25A4.73,4.73,0,0,0,243,289.8a4.82,4.82,0,0,0-1.53,3.43,7,7,0,0,0,2.35,5.15,6.65,6.65,0,0,0,4.87,2.25,5.12,5.12,0,0,0,3.61-1.35,5.22,5.22,0,0,0,1.63-4.06A6.76,6.76,0,0,0,251.7,290.61Zm-55.52,0a7.09,7.09,0,0,0-5.15-2.25,5,5,0,0,0-3.61,1.44,4.72,4.72,0,0,0-1.44,3.43,7,7,0,0,0,2.25,5.15,6.86,6.86,0,0,0,5,2.25,5.13,5.13,0,0,0,3.61-1.35,5.24,5.24,0,0,0,1.62-4.06A6.79,6.79,0,0,0,196.18,290.61Zm0,0a7.09,7.09,0,0,0-5.15-2.25,5,5,0,0,0-3.61,1.44,4.72,4.72,0,0,0-1.44,3.43,7,7,0,0,0,2.25,5.15,6.86,6.86,0,0,0,5,2.25,5.13,5.13,0,0,0,3.61-1.35,5.24,5.24,0,0,0,1.62-4.06A6.79,6.79,0,0,0,196.18,290.61Zm55.52,0a7,7,0,0,0-5-2.25A4.73,4.73,0,0,0,243,289.8a4.82,4.82,0,0,0-1.53,3.43,7,7,0,0,0,2.35,5.15,6.65,6.65,0,0,0,4.87,2.25,5.12,5.12,0,0,0,3.61-1.35,5.22,5.22,0,0,0,1.63-4.06A6.76,6.76,0,0,0,251.7,290.61Zm17.34-.45a3.68,3.68,0,0,0-3.07-1.62,4.09,4.09,0,0,0-3,1.26,5.14,5.14,0,0,0-1.18,3.34v4.79a3.45,3.45,0,0,0,.91,2.43,3.32,3.32,0,0,0,2.34.82,4.25,4.25,0,0,0,3.71-2.26,9,9,0,0,0,1.35-4.88A6.8,6.8,0,0,0,269,290.16Zm10.83,20.13c-.54-1-1.17-1.53-1.9-1.53s-.81.36-.81.72v.18a.17.17,0,0,0,.27,0,.09.09,0,0,1,.09-.09c0-.09.09-.18.27-.18s.18,0,.27.27c.09.09.09.18.09.36a.7.7,0,0,1-.09.27.78.78,0,0,1-.27.55,1.2,1.2,0,0,1-.72.27,1.25,1.25,0,0,1-.9-.45,1.86,1.86,0,0,1-.27-.46,7.9,7.9,0,0,0-.45,1.54,5.86,5.86,0,0,0-.18,1.72,8,8,0,0,0,.81,3.88,2.19,2.19,0,0,0,2,1.35,2.35,2.35,0,0,0,1.9-1,5.84,5.84,0,0,0,.81-3.43A9,9,0,0,0,279.87,310.29Zm5-16.34a5.11,5.11,0,0,0-3.16-1,4,4,0,0,0-2.8,1.08,3,3,0,0,0-1.18,2.53,3.41,3.41,0,0,0,1.18,2.71,4.65,4.65,0,0,0,6,0,3.49,3.49,0,0,0,1.17-2.8A3,3,0,0,0,284.84,294Zm0,0a5.11,5.11,0,0,0-3.16-1,4,4,0,0,0-2.8,1.08,3,3,0,0,0-1.18,2.53,3.41,3.41,0,0,0,1.18,2.71,4.65,4.65,0,0,0,6,0,3.49,3.49,0,0,0,1.17-2.8A3,3,0,0,0,284.84,294Zm-5,16.34c-.54-1-1.17-1.53-1.9-1.53s-.81.36-.81.72v.18a.17.17,0,0,0,.27,0,.09.09,0,0,1,.09-.09c0-.09.09-.18.27-.18s.18,0,.27.27c.09.09.09.18.09.36a.7.7,0,0,1-.09.27.78.78,0,0,1-.27.55,1.2,1.2,0,0,1-.72.27,1.25,1.25,0,0,1-.9-.45,1.86,1.86,0,0,1-.27-.46,7.9,7.9,0,0,0-.45,1.54,5.86,5.86,0,0,0-.18,1.72,8,8,0,0,0,.81,3.88,2.19,2.19,0,0,0,2,1.35,2.35,2.35,0,0,0,1.9-1,5.84,5.84,0,0,0,.81-3.43A9,9,0,0,0,279.87,310.29ZM269,290.16a3.68,3.68,0,0,0-3.07-1.62,4.09,4.09,0,0,0-3,1.26,5.14,5.14,0,0,0-1.18,3.34v4.79a3.45,3.45,0,0,0,.91,2.43,3.32,3.32,0,0,0,2.34.82,4.25,4.25,0,0,0,3.71-2.26,9,9,0,0,0,1.35-4.88A6.8,6.8,0,0,0,269,290.16Zm-17.34.45a7,7,0,0,0-5-2.25A4.73,4.73,0,0,0,243,289.8a4.82,4.82,0,0,0-1.53,3.43,7,7,0,0,0,2.35,5.15,6.65,6.65,0,0,0,4.87,2.25,5.12,5.12,0,0,0,3.61-1.35,5.22,5.22,0,0,0,1.63-4.06A6.76,6.76,0,0,0,251.7,290.61Zm-55.52,0a7.09,7.09,0,0,0-5.15-2.25,5,5,0,0,0-3.61,1.44,4.72,4.72,0,0,0-1.44,3.43,7,7,0,0,0,2.25,5.15,6.86,6.86,0,0,0,5,2.25,5.13,5.13,0,0,0,3.61-1.35,5.24,5.24,0,0,0,1.62-4.06A6.79,6.79,0,0,0,196.18,290.61ZM311.92,148.24c-30.15-29.71-66.45-39.91-107.53-30.43-47.49,10.92-82.34,51.46-87.57,99.94-3.43,32.33,4.24,62,25.28,87,31.33,37.47,71.5,51,118.81,38.91,50.65-12.82,84.69-58.59,85.41-114.3C345.78,199.43,335.21,171.08,311.92,148.24ZM141,244.39c.09-1.27,1-2.17,1.54-3.16,10.65-16.79,21.49-33.41,31.78-50.38,2.62-4.24,14.9-8.67,19.59-7.13,2.8,1,.9,2.16.36,3-7.13,11.19-14.35,22.3-21.49,33.49-1.71,2.53-3.25,5.06-5,7.59-1.36,2-1.81,3.07,1.44,3,23.57-.09,43.52,14.54,57.33,33.41C200.51,246.28,172.7,236.89,141,244.39Zm59.86-56.88c.9-1.26,1.45-1.54,2.8-.81,8.13,4.42,15.8,9.39,23.75,14.08a3.55,3.55,0,0,1,1.62,3.07c-.09,17.33.27,34.76-.36,53.09C214.87,239.78,198,229.58,177,226.06c1.53-2.53,2.8-4.78,4.24-7C187.78,208.46,194.37,198.07,200.87,187.51Zm-19.41,94.26A5,5,0,0,1,177,282a13.39,13.39,0,0,0-3.7-.91,6.53,6.53,0,0,0-5.42,2.8,10,10,0,0,0-2.08,6.32,11.72,11.72,0,0,0,2.62,7.59A8,8,0,0,0,175,301h1a14.12,14.12,0,0,0,1.45-.37,2.54,2.54,0,0,0,1-.36c-.09-.09-.18-.27-.27-.36s-.18-.36-.36-.63-.18-.63-.27-1v-8a2.86,2.86,0,0,1-.81.27,3.78,3.78,0,0,1-1.09.09,3.59,3.59,0,0,1-1.8-.63,4,4,0,0,0-1.54-.63,1,1,0,0,0-.72.27.42.42,0,0,0-.27.45c0,.18,0,.36.18.45,0,.09.18.18.36.09s.27,0,.36-.09h.09q.13-.27.27-.27a.39.39,0,0,1,.36.36,3.9,3.9,0,0,1,.09.45.57.57,0,0,1-.09.37c0,.18-.18.36-.45.63a1.6,1.6,0,0,1-.9.36,1.4,1.4,0,0,1-1.17-.63,2.73,2.73,0,0,1-.46-1.36v-.27a2.79,2.79,0,0,1,1-1.8,2.88,2.88,0,0,1,2.07-.73,5.13,5.13,0,0,1,2.08.37,10.45,10.45,0,0,0,3.25.81,6.19,6.19,0,0,0,1.17-.18c.46-.18.91-.36,1.27-.54h.09c.27,0,.36.09.36.18s.09.18,0,.36a2.39,2.39,0,0,0-.45.54,2.52,2.52,0,0,0-.63,1.71v6.41a4.3,4.3,0,0,0,.45,2c.09.09.27.36.72.9a.33.33,0,0,1,.09.27c0,.18,0,.27-.18.37a7.41,7.41,0,0,1-2.62,1.08,15.13,15.13,0,0,1-4.24.63,10.36,10.36,0,0,1-8-3.52,11.94,11.94,0,0,1-3.25-8.31,11.55,11.55,0,0,1,2.8-7.76,9.52,9.52,0,0,1,7.5-3.25,10.35,10.35,0,0,1,3.43.63,15.31,15.31,0,0,0,2.07.54c1,0,1.09-.36,1.09-.72a.47.47,0,0,0-.18-.36.47.47,0,0,0-.37-.18h-.18c-.09,0-.09.09-.18.09h-.27a.29.29,0,0,1-.27-.27c0-.18,0-.27.09-.36a1.61,1.61,0,0,1,.72-.82,3.36,3.36,0,0,1,1-.18,1.66,1.66,0,0,1,1.44.64,2,2,0,0,1,.45,1.44A2,2,0,0,1,181.46,281.77Zm16.34,18.5a8.13,8.13,0,0,1-5.6,2.26,7.73,7.73,0,0,1-5.68-2.35,7.94,7.94,0,0,1-2.35-5.78,7.68,7.68,0,0,1,2.35-5.59,8,8,0,0,1,5.68-2.35,7.74,7.74,0,0,1,5.69,2.35,8.27,8.27,0,0,1-.09,11.46Zm30.61-18.5c-1.09.81-2.71.72-4.34.18a13.23,13.23,0,0,0-3.7-.91,6.41,6.41,0,0,0-5.41,2.8,10,10,0,0,0-2.08,6.32,11.65,11.65,0,0,0,2.53,7.59,8.21,8.21,0,0,0,6.5,3.25H223c.36-.09.81-.18,1.45-.37a3.22,3.22,0,0,0,1-.36.48.48,0,0,1-.27-.36,1.93,1.93,0,0,1-.36-.63,1.81,1.81,0,0,1-.27-1c0-.45-.09-.91-.09-1.54v-6.5a4,4,0,0,1-.73.27,4.75,4.75,0,0,1-1.17.09,3.94,3.94,0,0,1-1.81-.63,3.63,3.63,0,0,0-1.44-.63,1.45,1.45,0,0,0-.81.27.42.42,0,0,0-.27.45.69.69,0,0,0,.18.45.4.4,0,0,0,.45.09c.09,0,.27,0,.27-.09h.09a.48.48,0,0,1,.36-.27.4.4,0,0,1,.27.36.67.67,0,0,1,.09.45v.37a2.08,2.08,0,0,1-.45.63,1.9,1.9,0,0,1-.9.36,1.59,1.59,0,0,1-1.27-.63,2.57,2.57,0,0,1-.36-1.36v-.27a2.42,2.42,0,0,1,1-1.8,2.75,2.75,0,0,1,2.07-.73,5.45,5.45,0,0,1,2.08.37,9.38,9.38,0,0,0,3.25.81,4.52,4.52,0,0,0,1.08-.18l1.36-.54h.09a.47.47,0,0,1,.36.18c0,.09.09.18,0,.36h-.09a2.39,2.39,0,0,1-.45.54,3,3,0,0,0-.64,1.71v6.41a3.36,3.36,0,0,0,.55,2c0,.09.18.36.63.9.09.09.18.18.18.27a.51.51,0,0,1-.18.37,8.19,8.19,0,0,1-2.71,1.08,14.6,14.6,0,0,1-4.15.63,10.55,10.55,0,0,1-8-3.52,12.22,12.22,0,0,1-3.16-8.31,11.08,11.08,0,0,1,2.8-7.76,9.45,9.45,0,0,1,7.4-3.25,9.89,9.89,0,0,1,3.43.63,11.89,11.89,0,0,0,2.17.54c.9,0,1.08-.36,1.08-.72a.47.47,0,0,0-.18-.36.69.69,0,0,0-.45-.18h-.09a.31.31,0,0,0-.18.09h-.36c-.09,0-.18-.18-.18-.27s0-.27.09-.36a1.46,1.46,0,0,1,.63-.82,4.52,4.52,0,0,1,1.09-.18,1.77,1.77,0,0,1,1.44.64,2.49,2.49,0,0,1,.45,1.44A1.83,1.83,0,0,1,228.41,281.77Zm-2.53-86a155.86,155.86,0,0,0-19-11.28c-.63-.36-1.17-.63-1.71-1a12.38,12.38,0,0,1-5.42-5.6,12.63,12.63,0,0,1-.27-8.85v-.18l21.21,8.85-1.17-.63c-.81-.46-1.35-.73-1.53-.82-10.39-6.23-20.77-12.46-31.15-18.78-3.52-2.16-3.52-2.7.09-4.51,13.36-6.86,26.81-13.72,40.17-20.58a8.9,8.9,0,0,1,8.4,0c13.54,7,27.18,14,40.81,20.94,2.71,1.36,2.62,2.17-.09,3.88-5.06,3-10.11,6.05-15.08,9v.09l-18.87,11.38,18.87-7.86c.81-.36,1.72-.72,2.53-1.17,0,2.8.18,5.15,0,7.49a6.33,6.33,0,0,1-3.16,5.33c-8.22,4.88-16.34,9.57-24.38,14.54C232.47,198.16,229.49,198.07,225.88,195.72Zm46-5.23-3-3.43-2.26,4.06c0-8.12-.09-15.35,0-22.57,0-1.72,1.71-2.53,5.23-3.16Zm13.28,35.66c-21.22,3.43-37.83,13.9-51.56,30.43-.09-2.08-.18-3.52-.27-5-.09-15.26-.18-30.43-.45-45.68,0-3.16,1.18-4.88,3.88-6.41,6.87-3.7,13.55-7.77,20.14-11.92,2.53-1.54,4.15-1.72,5.05,1.17,1.72,5.33,5.87,8.85,8.58,13.55C275.18,210.26,280.14,218,285.2,226.15ZM236.08,302h-.45c-.63,0-1-.09-1.26-.09a2.08,2.08,0,0,0-.82.09h-.81c-.54,0-.63-.27-.63-.36s.09-.27.18-.45c.27-.27.54-.36.63-.55a.48.48,0,0,0,.27-.36v-17H233s-.09,0-.45.27-.45.27-.54.27-.36.09-.36,0a.47.47,0,0,1-.18-.36.68.68,0,0,1,.09-.36,6.49,6.49,0,0,1,.9-.9l.9-.91a15.28,15.28,0,0,0,1.18-1.26,6.55,6.55,0,0,1,.54-.63c.09,0,.09,0,.18-.09h.18s.36,0,.36.45-.09.81-.18,1.26v19.23a.48.48,0,0,0,.27.36,1.27,1.27,0,0,0,.54.46v.09a.49.49,0,0,1,.27.45C236.71,301.72,236.62,302,236.08,302Zm17.25-1.72a8,8,0,0,1-5.6,2.26,7.76,7.76,0,0,1-5.69-2.35,8,8,0,0,1-2.35-5.78,7.72,7.72,0,0,1,2.35-5.59,8.11,8.11,0,0,1,5.78-2.35,7.7,7.7,0,0,1,5.6,2.35,8.13,8.13,0,0,1,2.34,5.78A7.79,7.79,0,0,1,253.33,300.27ZM272.11,318c-.09.09-.19.27-.28.36s-.09.27-.18.45-.09.18-.09.36v.36a.61.61,0,0,1-.36.36c-.09,0-.18-.09-.27-.09a5.07,5.07,0,0,0-1.08-.36,11.36,11.36,0,0,0-1.9-.18,7.21,7.21,0,0,0-2.07.27s-.27.09-.91.36h-.09c-.09,0-.18,0-.18-.09s-.09-.09-.09-.27v-.09a3,3,0,0,1,.45-1.08c.27-.36.55-.81.82-1.17A14.31,14.31,0,0,1,268,314.9a9.59,9.59,0,0,0,1.72-1.63,3.59,3.59,0,0,0,.63-2.16,1.87,1.87,0,0,0-.63-1.54,1.7,1.7,0,0,0-1.54-.72,2.29,2.29,0,0,0-1.44.45,1.56,1.56,0,0,0-.54,1.09,1.75,1.75,0,0,0,.09.72.64.64,0,0,0,.54.27c.09,0,.18-.09.27-.09l.18-.18.09-.09v-.09c.09-.09.18-.27.36-.27h.09l.09.09a.76.76,0,0,1,.18.54.81.81,0,0,1,.09.45.86.86,0,0,1-.54.81,1.35,1.35,0,0,1-1,.36,1.6,1.6,0,0,1-1.27-.63,2.21,2.21,0,0,1-.45-1.35,2.56,2.56,0,0,1,1.09-2.17,3.52,3.52,0,0,1,2.34-.81,3.86,3.86,0,0,1,2.53.81,3.2,3.2,0,0,1,1.18,2.71,2.62,2.62,0,0,1-.46,1.62,5.25,5.25,0,0,1-1,1.27,10.55,10.55,0,0,0-1.35,1.08c-.45.36-.91.63-1.36,1l-1,1a6.35,6.35,0,0,0-.63.81,2.4,2.4,0,0,1,1.08-.27,6.79,6.79,0,0,1,2-.18h1.62c.09-.09.18-.09.36-.18s.27-.09.36-.09a.46.46,0,0,1,.37,0c.09.09.18.18.09.36Zm-1.45-18.15a6.65,6.65,0,0,1-5.42,2.71,5.36,5.36,0,0,1-2.43-.54,4.27,4.27,0,0,1-1.45-1.08,5,5,0,0,0-.45.72,2.43,2.43,0,0,1-.63.72c-.27.18-.45.18-.63-.09-.09-.09-.27-.18-.36-.36a1.25,1.25,0,0,0-.28-.36l-.72-.72c-.09-.19-.18-.28-.18-.37a.48.48,0,0,1,.27-.36c.36-.18.54-.27.63-.45a2.63,2.63,0,0,0,.37-1.62V283.3h-.09a.75.75,0,0,0-.46.27,2.34,2.34,0,0,1-.63.27c-.09.09-.18.09-.36,0s-.18-.18-.18-.27a.69.69,0,0,1,.18-.45c0-.09.18-.18.63-.63l1.18-1.18c.36-.36.72-.81,1.17-1.26a6.55,6.55,0,0,1,.54-.63c.09,0,.18-.09.27-.09s.36.09.36.54a9.78,9.78,0,0,1-.09,1.17c0,.54-.09,1-.09,1.54v6.59a8.63,8.63,0,0,1,1.54-1.54,5.09,5.09,0,0,1,3.16-1.17,5.39,5.39,0,0,1,4.42,2,7.12,7.12,0,0,1,1.72,5.05A10.36,10.36,0,0,1,270.66,299.82ZM281,317.88a4.05,4.05,0,0,1-3.34,2,3.54,3.54,0,0,1-3-1.53,6.68,6.68,0,0,1-1.08-4,6.33,6.33,0,0,1,.63-2.8,4.69,4.69,0,0,1,1.09-1.9.47.47,0,0,1,.36-.18h.09a1.48,1.48,0,0,1,.72-1.08,3.11,3.11,0,0,1,1.62-.45,3.76,3.76,0,0,1,3.07,1.71,7.17,7.17,0,0,1,1.18,4.07A6.69,6.69,0,0,1,281,317.88Zm6.14-9.21c-.18.72-.36,1.35-.45,1.72a13.48,13.48,0,0,0-.36,2.16,23.06,23.06,0,0,0-.18,2.8,6.65,6.65,0,0,0,.27,2,3.16,3.16,0,0,0,.54,1.26.33.33,0,0,1,.09.27c0,.09,0,.18-.18.27l-.09.09c-.18,0-.27,0-.36.09s-.27,0-.36.09-.27.09-.36.18l-.45.18h-.09a.29.29,0,0,1-.27-.27,4.42,4.42,0,0,1-.27-1.17c0-.54-.1-1.08-.1-1.62a29.52,29.52,0,0,1,.37-3.53,27.79,27.79,0,0,1,.63-2.89,1.26,1.26,0,0,1-1.54.19.81.81,0,0,1-.36-.64v-.36c.09-.09.18-.27.27-.36l.18-.09.27.18.09.18h.19a1,1,0,0,0,.9-.45,8.17,8.17,0,0,1,.54-.81.33.33,0,0,1,.45-.18.39.39,0,0,1,.27.09c.09.09.18.09.27.18s.18.18.18.27S287.27,308.67,287.18,308.67Zm-.36-6.68h-.45c-.54,0-.63-.27-.63-.36s.09-.18.18-.27.09-.27.18-.45.09-.19.09-.37l-.09-.63a5.28,5.28,0,0,1-1.63,1.54,5.87,5.87,0,0,1-3.34,1.08,6.63,6.63,0,0,1-4.15-1.44,5,5,0,0,1-1.71-4,5.31,5.31,0,0,1,1.89-4.15,6.56,6.56,0,0,1,4.43-1.62,5.94,5.94,0,0,1,2.43.54c.45.18.82.45,1.18.63a6.19,6.19,0,0,0-.54-1.17,12,12,0,0,0-2.17-2.53,4.69,4.69,0,0,0-3-1.18,3.36,3.36,0,0,0-1.72.37,1.22,1.22,0,0,0-.63,1.17.76.76,0,0,0,.18.63.49.49,0,0,0,.45.27.47.47,0,0,0,.36-.18c.19-.09.19-.18.19-.27v-.36c-.1-.09-.1-.18-.1-.36s0-.27.1-.36a.33.33,0,0,1,.27-.09,1.78,1.78,0,0,1,1,.54,1.25,1.25,0,0,1,.45.9,2.07,2.07,0,0,1-.72,1.45,2.5,2.5,0,0,1-1.45.45,2.14,2.14,0,0,1-1.62-.64,2.32,2.32,0,0,1-.63-1.8,2.51,2.51,0,0,1,1.44-2.26,8.11,8.11,0,0,1,3.07-.63,6.68,6.68,0,0,1,3.52,1.08,8.91,8.91,0,0,1,2.71,3.07,9.89,9.89,0,0,1,1.17,3.25c.18.82.37,2,.55,3.43a21.65,21.65,0,0,0,.45,2.89,1,1,0,0,0,.27.64,1,1,0,0,0,.27.45.68.68,0,0,1,.09.36c0,.18-.09.36-.45.36h-.54A3.45,3.45,0,0,0,286.82,302Zm8,16.25a5.43,5.43,0,0,1-3.79,1.62,3.34,3.34,0,0,1-1.9-.54,1.86,1.86,0,0,1-.9-1.53,1.29,1.29,0,0,1,.36-.9.86.86,0,0,1,.81-.37,1.16,1.16,0,0,1,.81.19.73.73,0,0,1,.36.72,1.3,1.3,0,0,1-.18.63.68.68,0,0,1-.36.18c-.09,0-.27-.18-.27-.18V318h-.09a.09.09,0,0,0-.09-.09.31.31,0,0,1-.09.18c0,.18.09.45.54.63a2.5,2.5,0,0,0,1.18.27,3.29,3.29,0,0,0,2.52-1.26,4.23,4.23,0,0,0,1.09-2.89,3.38,3.38,0,0,0-.54-1.9,1.91,1.91,0,0,0-1.54-.81,3.24,3.24,0,0,0-1,.18c-.27.18-.54.27-.63.54V313c-.09,0-.09.18-.09.27l-.09.09c-.1.1-.19.1-.37.1h-.45l-.18.27.09-.27H290a.64.64,0,0,1-.36-.55l.18-1a4.38,4.38,0,0,0,.09-1.08c0-1.18-.09-1.9-.09-2.08s.09-.18.09-.27l.09-.18c.09-.09.18-.09.36-.09l1.63.27a11,11,0,0,0,1.71.18c.45,0,.64,0,.73-.09s.18-.18.18-.18v-.18a.48.48,0,0,1-.27-.36,1.29,1.29,0,0,1,.18-.27.54.54,0,0,1,.36-.09h.27a1.26,1.26,0,0,1,.81.27,1.62,1.62,0,0,1,.36.81,1.17,1.17,0,0,1-.81,1.08,3,3,0,0,1-1.36.27,7.72,7.72,0,0,1-2-.18,8.33,8.33,0,0,1-1.27-.27v1.36a2.49,2.49,0,0,1-.09.81,3.44,3.44,0,0,1,.73-.45,3.72,3.72,0,0,1,1.71-.45,2.91,2.91,0,0,1,2.35,1.08,4,4,0,0,1,.81,2.71A5.05,5.05,0,0,1,294.86,318.24ZM296.12,302h-.54c-.63,0-1-.09-1.17-.09a2.54,2.54,0,0,0-.91.09h-.81c-.54,0-.63-.27-.63-.36s.09-.27.27-.45.45-.36.54-.55a.48.48,0,0,0,.27-.36v-17h-.09s-.18,0-.45.27a5.35,5.35,0,0,1-.63.27c-.18.09-.27.09-.36,0a.47.47,0,0,1-.18-.36c0-.09.09-.18.18-.36s.18-.27.81-.9c.45-.36.72-.73,1-.91.27-.36.72-.72,1.09-1.26a3.59,3.59,0,0,1,.63-.63.09.09,0,0,0,.09-.09h.18c.09,0,.36,0,.36.45s-.09.81-.09,1.26a8.35,8.35,0,0,0-.09,1.54v17.69a.48.48,0,0,0,.27.36,2.21,2.21,0,0,0,.54.46v.09a.49.49,0,0,1,.27.45C296.66,301.72,296.66,302,296.12,302ZM235.18,264.7a62.17,62.17,0,0,1,10.38-12.28c11.2-10.92,24.11-19.14,40.09-21.21a51.51,51.51,0,0,1,7.49-.46c2.53,0,3-.54,1.45-2.88-6.68-10-13.1-20.14-19.69-30.25-1.08-1.53-1.89-2.71,0-4.6,1.63-1.63.73-4.34.73-6.59-.09-2,.27-2.71,2.43-2,4.61,1.81,8.31,4,11.11,8.4,9.93,16.34,20.22,32.41,30.42,48.57a34.13,34.13,0,0,1,1.9,3.07C289.44,236.89,261.72,246.55,235.18,264.7ZM281.68,293a4,4,0,0,0-2.8,1.08,3,3,0,0,0-1.18,2.53,3.41,3.41,0,0,0,1.18,2.71,4.65,4.65,0,0,0,6,0,3.49,3.49,0,0,0,1.17-2.8,3,3,0,0,0-1.17-2.53A5.11,5.11,0,0,0,281.68,293ZM278,308.76c-.72,0-.81.36-.81.72v.18a.17.17,0,0,0,.27,0,.09.09,0,0,1,.09-.09c0-.09.09-.18.27-.18s.18,0,.27.27c.09.09.09.18.09.36a.7.7,0,0,1-.09.27.78.78,0,0,1-.27.55,1.2,1.2,0,0,1-.72.27,1.25,1.25,0,0,1-.9-.45,1.86,1.86,0,0,1-.27-.46,7.9,7.9,0,0,0-.45,1.54,5.86,5.86,0,0,0-.18,1.72,8,8,0,0,0,.81,3.88,2.19,2.19,0,0,0,2,1.35,2.35,2.35,0,0,0,1.9-1,5.84,5.84,0,0,0,.81-3.43,9,9,0,0,0-.9-4C279.33,309.3,278.7,308.76,278,308.76Zm-12-20.22a4.09,4.09,0,0,0-3,1.26,5.14,5.14,0,0,0-1.18,3.34v4.79a3.45,3.45,0,0,0,.91,2.43,3.32,3.32,0,0,0,2.34.82,4.25,4.25,0,0,0,3.71-2.26,9,9,0,0,0,1.35-4.88,6.8,6.8,0,0,0-1.08-3.88A3.68,3.68,0,0,0,266,288.54Zm-19.32-.18A4.73,4.73,0,0,0,243,289.8a4.82,4.82,0,0,0-1.53,3.43,7,7,0,0,0,2.35,5.15,6.65,6.65,0,0,0,4.87,2.25,5.12,5.12,0,0,0,3.61-1.35,5.22,5.22,0,0,0,1.63-4.06,6.76,6.76,0,0,0-2.26-4.61A7,7,0,0,0,246.65,288.36Zm-55.62,0a5,5,0,0,0-3.61,1.44,4.72,4.72,0,0,0-1.44,3.43,7,7,0,0,0,2.25,5.15,6.86,6.86,0,0,0,5,2.25,5.13,5.13,0,0,0,3.61-1.35,5.24,5.24,0,0,0,1.62-4.06,6.79,6.79,0,0,0-2.25-4.61A7.09,7.09,0,0,0,191,288.36Zm5.15,2.25a7.09,7.09,0,0,0-5.15-2.25,5,5,0,0,0-3.61,1.44,4.72,4.72,0,0,0-1.44,3.43,7,7,0,0,0,2.25,5.15,6.86,6.86,0,0,0,5,2.25,5.13,5.13,0,0,0,3.61-1.35,5.24,5.24,0,0,0,1.62-4.06A6.79,6.79,0,0,0,196.18,290.61Zm55.52,0a7,7,0,0,0-5-2.25A4.73,4.73,0,0,0,243,289.8a4.82,4.82,0,0,0-1.53,3.43,7,7,0,0,0,2.35,5.15,6.65,6.65,0,0,0,4.87,2.25,5.12,5.12,0,0,0,3.61-1.35,5.22,5.22,0,0,0,1.63-4.06A6.76,6.76,0,0,0,251.7,290.61Zm17.34-.45a3.68,3.68,0,0,0-3.07-1.62,4.09,4.09,0,0,0-3,1.26,5.14,5.14,0,0,0-1.18,3.34v4.79a3.45,3.45,0,0,0,.91,2.43,3.32,3.32,0,0,0,2.34.82,4.25,4.25,0,0,0,3.71-2.26,9,9,0,0,0,1.35-4.88A6.8,6.8,0,0,0,269,290.16Zm10.83,20.13c-.54-1-1.17-1.53-1.9-1.53s-.81.36-.81.72v.18a.17.17,0,0,0,.27,0,.09.09,0,0,1,.09-.09c0-.09.09-.18.27-.18s.18,0,.27.27c.09.09.09.18.09.36a.7.7,0,0,1-.09.27.78.78,0,0,1-.27.55,1.2,1.2,0,0,1-.72.27,1.25,1.25,0,0,1-.9-.45,1.86,1.86,0,0,1-.27-.46,7.9,7.9,0,0,0-.45,1.54,5.86,5.86,0,0,0-.18,1.72,8,8,0,0,0,.81,3.88,2.19,2.19,0,0,0,2,1.35,2.35,2.35,0,0,0,1.9-1,5.84,5.84,0,0,0,.81-3.43A9,9,0,0,0,279.87,310.29Zm5-16.34a5.11,5.11,0,0,0-3.16-1,4,4,0,0,0-2.8,1.08,3,3,0,0,0-1.18,2.53,3.41,3.41,0,0,0,1.18,2.71,4.65,4.65,0,0,0,6,0,3.49,3.49,0,0,0,1.17-2.8A3,3,0,0,0,284.84,294Zm0,0a5.11,5.11,0,0,0-3.16-1,4,4,0,0,0-2.8,1.08,3,3,0,0,0-1.18,2.53,3.41,3.41,0,0,0,1.18,2.71,4.65,4.65,0,0,0,6,0,3.49,3.49,0,0,0,1.17-2.8A3,3,0,0,0,284.84,294Zm-5,16.34c-.54-1-1.17-1.53-1.9-1.53s-.81.36-.81.72v.18a.17.17,0,0,0,.27,0,.09.09,0,0,1,.09-.09c0-.09.09-.18.27-.18s.18,0,.27.27c.09.09.09.18.09.36a.7.7,0,0,1-.09.27.78.78,0,0,1-.27.55,1.2,1.2,0,0,1-.72.27,1.25,1.25,0,0,1-.9-.45,1.86,1.86,0,0,1-.27-.46,7.9,7.9,0,0,0-.45,1.54,5.86,5.86,0,0,0-.18,1.72,8,8,0,0,0,.81,3.88,2.19,2.19,0,0,0,2,1.35,2.35,2.35,0,0,0,1.9-1,5.84,5.84,0,0,0,.81-3.43A9,9,0,0,0,279.87,310.29ZM269,290.16a3.68,3.68,0,0,0-3.07-1.62,4.09,4.09,0,0,0-3,1.26,5.14,5.14,0,0,0-1.18,3.34v4.79a3.45,3.45,0,0,0,.91,2.43,3.32,3.32,0,0,0,2.34.82,4.25,4.25,0,0,0,3.71-2.26,9,9,0,0,0,1.35-4.88A6.8,6.8,0,0,0,269,290.16Zm-17.34.45a7,7,0,0,0-5-2.25A4.73,4.73,0,0,0,243,289.8a4.82,4.82,0,0,0-1.53,3.43,7,7,0,0,0,2.35,5.15,6.65,6.65,0,0,0,4.87,2.25,5.12,5.12,0,0,0,3.61-1.35,5.22,5.22,0,0,0,1.63-4.06A6.76,6.76,0,0,0,251.7,290.61Zm-55.52,0a7.09,7.09,0,0,0-5.15-2.25,5,5,0,0,0-3.61,1.44,4.72,4.72,0,0,0-1.44,3.43,7,7,0,0,0,2.25,5.15,6.86,6.86,0,0,0,5,2.25,5.13,5.13,0,0,0,3.61-1.35,5.24,5.24,0,0,0,1.62-4.06A6.79,6.79,0,0,0,196.18,290.61Zm0,0a7.09,7.09,0,0,0-5.15-2.25,5,5,0,0,0-3.61,1.44,4.72,4.72,0,0,0-1.44,3.43,7,7,0,0,0,2.25,5.15,6.86,6.86,0,0,0,5,2.25,5.13,5.13,0,0,0,3.61-1.35,5.24,5.24,0,0,0,1.62-4.06A6.79,6.79,0,0,0,196.18,290.61Zm55.52,0a7,7,0,0,0-5-2.25A4.73,4.73,0,0,0,243,289.8a4.82,4.82,0,0,0-1.53,3.43,7,7,0,0,0,2.35,5.15,6.65,6.65,0,0,0,4.87,2.25,5.12,5.12,0,0,0,3.61-1.35,5.22,5.22,0,0,0,1.63-4.06A6.76,6.76,0,0,0,251.7,290.61Zm17.34-.45a3.68,3.68,0,0,0-3.07-1.62,4.09,4.09,0,0,0-3,1.26,5.14,5.14,0,0,0-1.18,3.34v4.79a3.45,3.45,0,0,0,.91,2.43,3.32,3.32,0,0,0,2.34.82,4.25,4.25,0,0,0,3.71-2.26,9,9,0,0,0,1.35-4.88A6.8,6.8,0,0,0,269,290.16Zm10.83,20.13c-.54-1-1.17-1.53-1.9-1.53s-.81.36-.81.72v.18a.17.17,0,0,0,.27,0,.09.09,0,0,1,.09-.09c0-.09.09-.18.27-.18s.18,0,.27.27c.09.09.09.18.09.36a.7.7,0,0,1-.09.27.78.78,0,0,1-.27.55,1.2,1.2,0,0,1-.72.27,1.25,1.25,0,0,1-.9-.45,1.86,1.86,0,0,1-.27-.46,7.9,7.9,0,0,0-.45,1.54,5.86,5.86,0,0,0-.18,1.72,8,8,0,0,0,.81,3.88,2.19,2.19,0,0,0,2,1.35,2.35,2.35,0,0,0,1.9-1,5.84,5.84,0,0,0,.81-3.43A9,9,0,0,0,279.87,310.29Zm5-16.34a5.11,5.11,0,0,0-3.16-1,4,4,0,0,0-2.8,1.08,3,3,0,0,0-1.18,2.53,3.41,3.41,0,0,0,1.18,2.71,4.65,4.65,0,0,0,6,0,3.49,3.49,0,0,0,1.17-2.8A3,3,0,0,0,284.84,294Zm0,0a5.11,5.11,0,0,0-3.16-1,4,4,0,0,0-2.8,1.08,3,3,0,0,0-1.18,2.53,3.41,3.41,0,0,0,1.18,2.71,4.65,4.65,0,0,0,6,0,3.49,3.49,0,0,0,1.17-2.8A3,3,0,0,0,284.84,294Zm-5,16.34c-.54-1-1.17-1.53-1.9-1.53s-.81.36-.81.72v.18a.17.17,0,0,0,.27,0,.09.09,0,0,1,.09-.09c0-.09.09-.18.27-.18s.18,0,.27.27c.09.09.09.18.09.36a.7.7,0,0,1-.09.27.78.78,0,0,1-.27.55,1.2,1.2,0,0,1-.72.27,1.25,1.25,0,0,1-.9-.45,1.86,1.86,0,0,1-.27-.46,7.9,7.9,0,0,0-.45,1.54,5.86,5.86,0,0,0-.18,1.72,8,8,0,0,0,.81,3.88,2.19,2.19,0,0,0,2,1.35,2.35,2.35,0,0,0,1.9-1,5.84,5.84,0,0,0,.81-3.43A9,9,0,0,0,279.87,310.29ZM269,290.16a3.68,3.68,0,0,0-3.07-1.62,4.09,4.09,0,0,0-3,1.26,5.14,5.14,0,0,0-1.18,3.34v4.79a3.45,3.45,0,0,0,.91,2.43,3.32,3.32,0,0,0,2.34.82,4.25,4.25,0,0,0,3.71-2.26,9,9,0,0,0,1.35-4.88A6.8,6.8,0,0,0,269,290.16Zm-17.34.45a7,7,0,0,0-5-2.25A4.73,4.73,0,0,0,243,289.8a4.82,4.82,0,0,0-1.53,3.43,7,7,0,0,0,2.35,5.15,6.65,6.65,0,0,0,4.87,2.25,5.12,5.12,0,0,0,3.61-1.35,5.22,5.22,0,0,0,1.63-4.06A6.76,6.76,0,0,0,251.7,290.61Zm-55.52,0a7.09,7.09,0,0,0-5.15-2.25,5,5,0,0,0-3.61,1.44,4.72,4.72,0,0,0-1.44,3.43,7,7,0,0,0,2.25,5.15,6.86,6.86,0,0,0,5,2.25,5.13,5.13,0,0,0,3.61-1.35,5.24,5.24,0,0,0,1.62-4.06A6.79,6.79,0,0,0,196.18,290.61Zm0,0a7.09,7.09,0,0,0-5.15-2.25,5,5,0,0,0-3.61,1.44,4.72,4.72,0,0,0-1.44,3.43,7,7,0,0,0,2.25,5.15,6.86,6.86,0,0,0,5,2.25,5.13,5.13,0,0,0,3.61-1.35,5.24,5.24,0,0,0,1.62-4.06A6.79,6.79,0,0,0,196.18,290.61Zm55.52,0a7,7,0,0,0-5-2.25A4.73,4.73,0,0,0,243,289.8a4.82,4.82,0,0,0-1.53,3.43,7,7,0,0,0,2.35,5.15,6.65,6.65,0,0,0,4.87,2.25,5.12,5.12,0,0,0,3.61-1.35,5.22,5.22,0,0,0,1.63-4.06A6.76,6.76,0,0,0,251.7,290.61Zm17.34-.45a3.68,3.68,0,0,0-3.07-1.62,4.09,4.09,0,0,0-3,1.26,5.14,5.14,0,0,0-1.18,3.34v4.79a3.45,3.45,0,0,0,.91,2.43,3.32,3.32,0,0,0,2.34.82,4.25,4.25,0,0,0,3.71-2.26,9,9,0,0,0,1.35-4.88A6.8,6.8,0,0,0,269,290.16Zm10.83,20.13c-.54-1-1.17-1.53-1.9-1.53s-.81.36-.81.72v.18a.17.17,0,0,0,.27,0,.09.09,0,0,1,.09-.09c0-.09.09-.18.27-.18s.18,0,.27.27c.09.09.09.18.09.36a.7.7,0,0,1-.09.27.78.78,0,0,1-.27.55,1.2,1.2,0,0,1-.72.27,1.25,1.25,0,0,1-.9-.45,1.86,1.86,0,0,1-.27-.46,7.9,7.9,0,0,0-.45,1.54,5.86,5.86,0,0,0-.18,1.72,8,8,0,0,0,.81,3.88,2.19,2.19,0,0,0,2,1.35,2.35,2.35,0,0,0,1.9-1,5.84,5.84,0,0,0,.81-3.43A9,9,0,0,0,279.87,310.29Zm5-16.34a5.11,5.11,0,0,0-3.16-1,4,4,0,0,0-2.8,1.08,3,3,0,0,0-1.18,2.53,3.41,3.41,0,0,0,1.18,2.71,4.65,4.65,0,0,0,6,0,3.49,3.49,0,0,0,1.17-2.8A3,3,0,0,0,284.84,294Zm0,0a5.11,5.11,0,0,0-3.16-1,4,4,0,0,0-2.8,1.08,3,3,0,0,0-1.18,2.53,3.41,3.41,0,0,0,1.18,2.71,4.65,4.65,0,0,0,6,0,3.49,3.49,0,0,0,1.17-2.8A3,3,0,0,0,284.84,294Zm-5,16.34c-.54-1-1.17-1.53-1.9-1.53s-.81.36-.81.72v.18a.17.17,0,0,0,.27,0,.09.09,0,0,1,.09-.09c0-.09.09-.18.27-.18s.18,0,.27.27c.09.09.09.18.09.36a.7.7,0,0,1-.09.27.78.78,0,0,1-.27.55,1.2,1.2,0,0,1-.72.27,1.25,1.25,0,0,1-.9-.45,1.86,1.86,0,0,1-.27-.46,7.9,7.9,0,0,0-.45,1.54,5.86,5.86,0,0,0-.18,1.72,8,8,0,0,0,.81,3.88,2.19,2.19,0,0,0,2,1.35,2.35,2.35,0,0,0,1.9-1,5.84,5.84,0,0,0,.81-3.43A9,9,0,0,0,279.87,310.29ZM269,290.16a3.68,3.68,0,0,0-3.07-1.62,4.09,4.09,0,0,0-3,1.26,5.14,5.14,0,0,0-1.18,3.34v4.79a3.45,3.45,0,0,0,.91,2.43,3.32,3.32,0,0,0,2.34.82,4.25,4.25,0,0,0,3.71-2.26,9,9,0,0,0,1.35-4.88A6.8,6.8,0,0,0,269,290.16Zm-17.34.45a7,7,0,0,0-5-2.25A4.73,4.73,0,0,0,243,289.8a4.82,4.82,0,0,0-1.53,3.43,7,7,0,0,0,2.35,5.15,6.65,6.65,0,0,0,4.87,2.25,5.12,5.12,0,0,0,3.61-1.35,5.22,5.22,0,0,0,1.63-4.06A6.76,6.76,0,0,0,251.7,290.61Zm-55.52,0a7.09,7.09,0,0,0-5.15-2.25,5,5,0,0,0-3.61,1.44,4.72,4.72,0,0,0-1.44,3.43,7,7,0,0,0,2.25,5.15,6.86,6.86,0,0,0,5,2.25,5.13,5.13,0,0,0,3.61-1.35,5.24,5.24,0,0,0,1.62-4.06A6.79,6.79,0,0,0,196.18,290.61Zm0,0a7.09,7.09,0,0,0-5.15-2.25,5,5,0,0,0-3.61,1.44,4.72,4.72,0,0,0-1.44,3.43,7,7,0,0,0,2.25,5.15,6.86,6.86,0,0,0,5,2.25,5.13,5.13,0,0,0,3.61-1.35,5.24,5.24,0,0,0,1.62-4.06A6.79,6.79,0,0,0,196.18,290.61Zm55.52,0a7,7,0,0,0-5-2.25A4.73,4.73,0,0,0,243,289.8a4.82,4.82,0,0,0-1.53,3.43,7,7,0,0,0,2.35,5.15,6.65,6.65,0,0,0,4.87,2.25,5.12,5.12,0,0,0,3.61-1.35,5.22,5.22,0,0,0,1.63-4.06A6.76,6.76,0,0,0,251.7,290.61Zm17.34-.45a3.68,3.68,0,0,0-3.07-1.62,4.09,4.09,0,0,0-3,1.26,5.14,5.14,0,0,0-1.18,3.34v4.79a3.45,3.45,0,0,0,.91,2.43,3.32,3.32,0,0,0,2.34.82,4.25,4.25,0,0,0,3.71-2.26,9,9,0,0,0,1.35-4.88A6.8,6.8,0,0,0,269,290.16Zm10.83,20.13c-.54-1-1.17-1.53-1.9-1.53s-.81.36-.81.72v.18a.17.17,0,0,0,.27,0,.09.09,0,0,1,.09-.09c0-.09.09-.18.27-.18s.18,0,.27.27c.09.09.09.18.09.36a.7.7,0,0,1-.09.27.78.78,0,0,1-.27.55,1.2,1.2,0,0,1-.72.27,1.25,1.25,0,0,1-.9-.45,1.86,1.86,0,0,1-.27-.46,7.9,7.9,0,0,0-.45,1.54,5.86,5.86,0,0,0-.18,1.72,8,8,0,0,0,.81,3.88,2.19,2.19,0,0,0,2,1.35,2.35,2.35,0,0,0,1.9-1,5.84,5.84,0,0,0,.81-3.43A9,9,0,0,0,279.87,310.29Zm5-16.34a5.11,5.11,0,0,0-3.16-1,4,4,0,0,0-2.8,1.08,3,3,0,0,0-1.18,2.53,3.41,3.41,0,0,0,1.18,2.71,4.65,4.65,0,0,0,6,0,3.49,3.49,0,0,0,1.17-2.8A3,3,0,0,0,284.84,294Zm0,0a5.11,5.11,0,0,0-3.16-1,4,4,0,0,0-2.8,1.08,3,3,0,0,0-1.18,2.53,3.41,3.41,0,0,0,1.18,2.71,4.65,4.65,0,0,0,6,0,3.49,3.49,0,0,0,1.17-2.8A3,3,0,0,0,284.84,294Zm-5,16.34c-.54-1-1.17-1.53-1.9-1.53s-.81.36-.81.72v.18a.17.17,0,0,0,.27,0,.09.09,0,0,1,.09-.09c0-.09.09-.18.27-.18s.18,0,.27.27c.09.09.09.18.09.36a.7.7,0,0,1-.09.27.78.78,0,0,1-.27.55,1.2,1.2,0,0,1-.72.27,1.25,1.25,0,0,1-.9-.45,1.86,1.86,0,0,1-.27-.46,7.9,7.9,0,0,0-.45,1.54,5.86,5.86,0,0,0-.18,1.72,8,8,0,0,0,.81,3.88,2.19,2.19,0,0,0,2,1.35,2.35,2.35,0,0,0,1.9-1,5.84,5.84,0,0,0,.81-3.43A9,9,0,0,0,279.87,310.29ZM269,290.16a3.68,3.68,0,0,0-3.07-1.62,4.09,4.09,0,0,0-3,1.26,5.14,5.14,0,0,0-1.18,3.34v4.79a3.45,3.45,0,0,0,.91,2.43,3.32,3.32,0,0,0,2.34.82,4.25,4.25,0,0,0,3.71-2.26,9,9,0,0,0,1.35-4.88A6.8,6.8,0,0,0,269,290.16Zm-17.34.45a7,7,0,0,0-5-2.25A4.73,4.73,0,0,0,243,289.8a4.82,4.82,0,0,0-1.53,3.43,7,7,0,0,0,2.35,5.15,6.65,6.65,0,0,0,4.87,2.25,5.12,5.12,0,0,0,3.61-1.35,5.22,5.22,0,0,0,1.63-4.06A6.76,6.76,0,0,0,251.7,290.61Zm-55.52,0a7.09,7.09,0,0,0-5.15-2.25,5,5,0,0,0-3.61,1.44,4.72,4.72,0,0,0-1.44,3.43,7,7,0,0,0,2.25,5.15,6.86,6.86,0,0,0,5,2.25,5.13,5.13,0,0,0,3.61-1.35,5.24,5.24,0,0,0,1.62-4.06A6.79,6.79,0,0,0,196.18,290.61Zm0,0a7.09,7.09,0,0,0-5.15-2.25,5,5,0,0,0-3.61,1.44,4.72,4.72,0,0,0-1.44,3.43,7,7,0,0,0,2.25,5.15,6.86,6.86,0,0,0,5,2.25,5.13,5.13,0,0,0,3.61-1.35,5.24,5.24,0,0,0,1.62-4.06A6.79,6.79,0,0,0,196.18,290.61Zm55.52,0a7,7,0,0,0-5-2.25A4.73,4.73,0,0,0,243,289.8a4.82,4.82,0,0,0-1.53,3.43,7,7,0,0,0,2.35,5.15,6.65,6.65,0,0,0,4.87,2.25,5.12,5.12,0,0,0,3.61-1.35,5.22,5.22,0,0,0,1.63-4.06A6.76,6.76,0,0,0,251.7,290.61Zm17.34-.45a3.68,3.68,0,0,0-3.07-1.62,4.09,4.09,0,0,0-3,1.26,5.14,5.14,0,0,0-1.18,3.34v4.79a3.45,3.45,0,0,0,.91,2.43,3.32,3.32,0,0,0,2.34.82,4.25,4.25,0,0,0,3.71-2.26,9,9,0,0,0,1.35-4.88A6.8,6.8,0,0,0,269,290.16Zm10.83,20.13c-.54-1-1.17-1.53-1.9-1.53s-.81.36-.81.72v.18a.17.17,0,0,0,.27,0,.09.09,0,0,1,.09-.09c0-.09.09-.18.27-.18s.18,0,.27.27c.09.09.09.18.09.36a.7.7,0,0,1-.09.27.78.78,0,0,1-.27.55,1.2,1.2,0,0,1-.72.27,1.25,1.25,0,0,1-.9-.45,1.86,1.86,0,0,1-.27-.46,7.9,7.9,0,0,0-.45,1.54,5.86,5.86,0,0,0-.18,1.72,8,8,0,0,0,.81,3.88,2.19,2.19,0,0,0,2,1.35,2.35,2.35,0,0,0,1.9-1,5.84,5.84,0,0,0,.81-3.43A9,9,0,0,0,279.87,310.29Zm5-16.34a5.11,5.11,0,0,0-3.16-1,4,4,0,0,0-2.8,1.08,3,3,0,0,0-1.18,2.53,3.41,3.41,0,0,0,1.18,2.71,4.65,4.65,0,0,0,6,0,3.49,3.49,0,0,0,1.17-2.8A3,3,0,0,0,284.84,294Zm0,0a5.11,5.11,0,0,0-3.16-1,4,4,0,0,0-2.8,1.08,3,3,0,0,0-1.18,2.53,3.41,3.41,0,0,0,1.18,2.71,4.65,4.65,0,0,0,6,0,3.49,3.49,0,0,0,1.17-2.8A3,3,0,0,0,284.84,294Zm-5,16.34c-.54-1-1.17-1.53-1.9-1.53s-.81.36-.81.72v.18a.17.17,0,0,0,.27,0,.09.09,0,0,1,.09-.09c0-.09.09-.18.27-.18s.18,0,.27.27c.09.09.09.18.09.36a.7.7,0,0,1-.09.27.78.78,0,0,1-.27.55,1.2,1.2,0,0,1-.72.27,1.25,1.25,0,0,1-.9-.45,1.86,1.86,0,0,1-.27-.46,7.9,7.9,0,0,0-.45,1.54,5.86,5.86,0,0,0-.18,1.72,8,8,0,0,0,.81,3.88,2.19,2.19,0,0,0,2,1.35,2.35,2.35,0,0,0,1.9-1,5.84,5.84,0,0,0,.81-3.43A9,9,0,0,0,279.87,310.29ZM269,290.16a3.68,3.68,0,0,0-3.07-1.62,4.09,4.09,0,0,0-3,1.26,5.14,5.14,0,0,0-1.18,3.34v4.79a3.45,3.45,0,0,0,.91,2.43,3.32,3.32,0,0,0,2.34.82,4.25,4.25,0,0,0,3.71-2.26,9,9,0,0,0,1.35-4.88A6.8,6.8,0,0,0,269,290.16Zm-17.34.45a7,7,0,0,0-5-2.25A4.73,4.73,0,0,0,243,289.8a4.82,4.82,0,0,0-1.53,3.43,7,7,0,0,0,2.35,5.15,6.65,6.65,0,0,0,4.87,2.25,5.12,5.12,0,0,0,3.61-1.35,5.22,5.22,0,0,0,1.63-4.06A6.76,6.76,0,0,0,251.7,290.61Zm-55.52,0a7.09,7.09,0,0,0-5.15-2.25,5,5,0,0,0-3.61,1.44,4.72,4.72,0,0,0-1.44,3.43,7,7,0,0,0,2.25,5.15,6.86,6.86,0,0,0,5,2.25,5.13,5.13,0,0,0,3.61-1.35,5.24,5.24,0,0,0,1.62-4.06A6.79,6.79,0,0,0,196.18,290.61Zm0,0a7.09,7.09,0,0,0-5.15-2.25,5,5,0,0,0-3.61,1.44,4.72,4.72,0,0,0-1.44,3.43,7,7,0,0,0,2.25,5.15,6.86,6.86,0,0,0,5,2.25,5.13,5.13,0,0,0,3.61-1.35,5.24,5.24,0,0,0,1.62-4.06A6.79,6.79,0,0,0,196.18,290.61Zm55.52,0a7,7,0,0,0-5-2.25A4.73,4.73,0,0,0,243,289.8a4.82,4.82,0,0,0-1.53,3.43,7,7,0,0,0,2.35,5.15,6.65,6.65,0,0,0,4.87,2.25,5.12,5.12,0,0,0,3.61-1.35,5.22,5.22,0,0,0,1.63-4.06A6.76,6.76,0,0,0,251.7,290.61Zm17.34-.45a3.68,3.68,0,0,0-3.07-1.62,4.09,4.09,0,0,0-3,1.26,5.14,5.14,0,0,0-1.18,3.34v4.79a3.45,3.45,0,0,0,.91,2.43,3.32,3.32,0,0,0,2.34.82,4.25,4.25,0,0,0,3.71-2.26,9,9,0,0,0,1.35-4.88A6.8,6.8,0,0,0,269,290.16Zm10.83,20.13c-.54-1-1.17-1.53-1.9-1.53s-.81.36-.81.72v.18a.17.17,0,0,0,.27,0,.09.09,0,0,1,.09-.09c0-.09.09-.18.27-.18s.18,0,.27.27c.09.09.09.18.09.36a.7.7,0,0,1-.09.27.78.78,0,0,1-.27.55,1.2,1.2,0,0,1-.72.27,1.25,1.25,0,0,1-.9-.45,1.86,1.86,0,0,1-.27-.46,7.9,7.9,0,0,0-.45,1.54,5.86,5.86,0,0,0-.18,1.72,8,8,0,0,0,.81,3.88,2.19,2.19,0,0,0,2,1.35,2.35,2.35,0,0,0,1.9-1,5.84,5.84,0,0,0,.81-3.43A9,9,0,0,0,279.87,310.29Zm5-16.34a5.11,5.11,0,0,0-3.16-1,4,4,0,0,0-2.8,1.08,3,3,0,0,0-1.18,2.53,3.41,3.41,0,0,0,1.18,2.71,4.65,4.65,0,0,0,6,0,3.49,3.49,0,0,0,1.17-2.8A3,3,0,0,0,284.84,294Zm0,0a5.11,5.11,0,0,0-3.16-1,4,4,0,0,0-2.8,1.08,3,3,0,0,0-1.18,2.53,3.41,3.41,0,0,0,1.18,2.71,4.65,4.65,0,0,0,6,0,3.49,3.49,0,0,0,1.17-2.8A3,3,0,0,0,284.84,294Zm-5,16.34c-.54-1-1.17-1.53-1.9-1.53s-.81.36-.81.72v.18a.17.17,0,0,0,.27,0,.09.09,0,0,1,.09-.09c0-.09.09-.18.27-.18s.18,0,.27.27c.09.09.09.18.09.36a.7.7,0,0,1-.09.27.78.78,0,0,1-.27.55,1.2,1.2,0,0,1-.72.27,1.25,1.25,0,0,1-.9-.45,1.86,1.86,0,0,1-.27-.46,7.9,7.9,0,0,0-.45,1.54,5.86,5.86,0,0,0-.18,1.72,8,8,0,0,0,.81,3.88,2.19,2.19,0,0,0,2,1.35,2.35,2.35,0,0,0,1.9-1,5.84,5.84,0,0,0,.81-3.43A9,9,0,0,0,279.87,310.29ZM269,290.16a3.68,3.68,0,0,0-3.07-1.62,4.09,4.09,0,0,0-3,1.26,5.14,5.14,0,0,0-1.18,3.34v4.79a3.45,3.45,0,0,0,.91,2.43,3.32,3.32,0,0,0,2.34.82,4.25,4.25,0,0,0,3.71-2.26,9,9,0,0,0,1.35-4.88A6.8,6.8,0,0,0,269,290.16Zm-17.34.45a7,7,0,0,0-5-2.25A4.73,4.73,0,0,0,243,289.8a4.82,4.82,0,0,0-1.53,3.43,7,7,0,0,0,2.35,5.15,6.65,6.65,0,0,0,4.87,2.25,5.12,5.12,0,0,0,3.61-1.35,5.22,5.22,0,0,0,1.63-4.06A6.76,6.76,0,0,0,251.7,290.61Zm-55.52,0a7.09,7.09,0,0,0-5.15-2.25,5,5,0,0,0-3.61,1.44,4.72,4.72,0,0,0-1.44,3.43,7,7,0,0,0,2.25,5.15,6.86,6.86,0,0,0,5,2.25,5.13,5.13,0,0,0,3.61-1.35,5.24,5.24,0,0,0,1.62-4.06A6.79,6.79,0,0,0,196.18,290.61Zm0,0a7.09,7.09,0,0,0-5.15-2.25,5,5,0,0,0-3.61,1.44,4.72,4.72,0,0,0-1.44,3.43,7,7,0,0,0,2.25,5.15,6.86,6.86,0,0,0,5,2.25,5.13,5.13,0,0,0,3.61-1.35,5.24,5.24,0,0,0,1.62-4.06A6.79,6.79,0,0,0,196.18,290.61Zm55.52,0a7,7,0,0,0-5-2.25A4.73,4.73,0,0,0,243,289.8a4.82,4.82,0,0,0-1.53,3.43,7,7,0,0,0,2.35,5.15,6.65,6.65,0,0,0,4.87,2.25,5.12,5.12,0,0,0,3.61-1.35,5.22,5.22,0,0,0,1.63-4.06A6.76,6.76,0,0,0,251.7,290.61Zm17.34-.45a3.68,3.68,0,0,0-3.07-1.62,4.09,4.09,0,0,0-3,1.26,5.14,5.14,0,0,0-1.18,3.34v4.79a3.45,3.45,0,0,0,.91,2.43,3.32,3.32,0,0,0,2.34.82,4.25,4.25,0,0,0,3.71-2.26,9,9,0,0,0,1.35-4.88A6.8,6.8,0,0,0,269,290.16Zm10.83,20.13c-.54-1-1.17-1.53-1.9-1.53s-.81.36-.81.72v.18a.17.17,0,0,0,.27,0,.09.09,0,0,1,.09-.09c0-.09.09-.18.27-.18s.18,0,.27.27c.09.09.09.18.09.36a.7.7,0,0,1-.09.27.78.78,0,0,1-.27.55,1.2,1.2,0,0,1-.72.27,1.25,1.25,0,0,1-.9-.45,1.86,1.86,0,0,1-.27-.46,7.9,7.9,0,0,0-.45,1.54,5.86,5.86,0,0,0-.18,1.72,8,8,0,0,0,.81,3.88,2.19,2.19,0,0,0,2,1.35,2.35,2.35,0,0,0,1.9-1,5.84,5.84,0,0,0,.81-3.43A9,9,0,0,0,279.87,310.29Zm5-16.34a5.11,5.11,0,0,0-3.16-1,4,4,0,0,0-2.8,1.08,3,3,0,0,0-1.18,2.53,3.41,3.41,0,0,0,1.18,2.71,4.65,4.65,0,0,0,6,0,3.49,3.49,0,0,0,1.17-2.8A3,3,0,0,0,284.84,294Zm0,0a5.11,5.11,0,0,0-3.16-1,4,4,0,0,0-2.8,1.08,3,3,0,0,0-1.18,2.53,3.41,3.41,0,0,0,1.18,2.71,4.65,4.65,0,0,0,6,0,3.49,3.49,0,0,0,1.17-2.8A3,3,0,0,0,284.84,294Zm-5,16.34c-.54-1-1.17-1.53-1.9-1.53s-.81.36-.81.72v.18a.17.17,0,0,0,.27,0,.09.09,0,0,1,.09-.09c0-.09.09-.18.27-.18s.18,0,.27.27c.09.09.09.18.09.36a.7.7,0,0,1-.09.27.78.78,0,0,1-.27.55,1.2,1.2,0,0,1-.72.27,1.25,1.25,0,0,1-.9-.45,1.86,1.86,0,0,1-.27-.46,7.9,7.9,0,0,0-.45,1.54,5.86,5.86,0,0,0-.18,1.72,8,8,0,0,0,.81,3.88,2.19,2.19,0,0,0,2,1.35,2.35,2.35,0,0,0,1.9-1,5.84,5.84,0,0,0,.81-3.43A9,9,0,0,0,279.87,310.29ZM269,290.16a3.68,3.68,0,0,0-3.07-1.62,4.09,4.09,0,0,0-3,1.26,5.14,5.14,0,0,0-1.18,3.34v4.79a3.45,3.45,0,0,0,.91,2.43,3.32,3.32,0,0,0,2.34.82,4.25,4.25,0,0,0,3.71-2.26,9,9,0,0,0,1.35-4.88A6.8,6.8,0,0,0,269,290.16Zm-17.34.45a7,7,0,0,0-5-2.25A4.73,4.73,0,0,0,243,289.8a4.82,4.82,0,0,0-1.53,3.43,7,7,0,0,0,2.35,5.15,6.65,6.65,0,0,0,4.87,2.25,5.12,5.12,0,0,0,3.61-1.35,5.22,5.22,0,0,0,1.63-4.06A6.76,6.76,0,0,0,251.7,290.61Zm-55.52,0a7.09,7.09,0,0,0-5.15-2.25,5,5,0,0,0-3.61,1.44,4.72,4.72,0,0,0-1.44,3.43,7,7,0,0,0,2.25,5.15,6.86,6.86,0,0,0,5,2.25,5.13,5.13,0,0,0,3.61-1.35,5.24,5.24,0,0,0,1.62-4.06A6.79,6.79,0,0,0,196.18,290.61Zm0,0a7.09,7.09,0,0,0-5.15-2.25,5,5,0,0,0-3.61,1.44,4.72,4.72,0,0,0-1.44,3.43,7,7,0,0,0,2.25,5.15,6.86,6.86,0,0,0,5,2.25,5.13,5.13,0,0,0,3.61-1.35,5.24,5.24,0,0,0,1.62-4.06A6.79,6.79,0,0,0,196.18,290.61Zm55.52,0a7,7,0,0,0-5-2.25A4.73,4.73,0,0,0,243,289.8a4.82,4.82,0,0,0-1.53,3.43,7,7,0,0,0,2.35,5.15,6.65,6.65,0,0,0,4.87,2.25,5.12,5.12,0,0,0,3.61-1.35,5.22,5.22,0,0,0,1.63-4.06A6.76,6.76,0,0,0,251.7,290.61Zm17.34-.45a3.68,3.68,0,0,0-3.07-1.62,4.09,4.09,0,0,0-3,1.26,5.14,5.14,0,0,0-1.18,3.34v4.79a3.45,3.45,0,0,0,.91,2.43,3.32,3.32,0,0,0,2.34.82,4.25,4.25,0,0,0,3.71-2.26,9,9,0,0,0,1.35-4.88A6.8,6.8,0,0,0,269,290.16Zm10.83,20.13c-.54-1-1.17-1.53-1.9-1.53s-.81.36-.81.72v.18a.17.17,0,0,0,.27,0,.09.09,0,0,1,.09-.09c0-.09.09-.18.27-.18s.18,0,.27.27c.09.09.09.18.09.36a.7.7,0,0,1-.09.27.78.78,0,0,1-.27.55,1.2,1.2,0,0,1-.72.27,1.25,1.25,0,0,1-.9-.45,1.86,1.86,0,0,1-.27-.46,7.9,7.9,0,0,0-.45,1.54,5.86,5.86,0,0,0-.18,1.72,8,8,0,0,0,.81,3.88,2.19,2.19,0,0,0,2,1.35,2.35,2.35,0,0,0,1.9-1,5.84,5.84,0,0,0,.81-3.43A9,9,0,0,0,279.87,310.29Zm5-16.34a5.11,5.11,0,0,0-3.16-1,4,4,0,0,0-2.8,1.08,3,3,0,0,0-1.18,2.53,3.41,3.41,0,0,0,1.18,2.71,4.65,4.65,0,0,0,6,0,3.49,3.49,0,0,0,1.17-2.8A3,3,0,0,0,284.84,294Zm0,0a5.11,5.11,0,0,0-3.16-1,4,4,0,0,0-2.8,1.08,3,3,0,0,0-1.18,2.53,3.41,3.41,0,0,0,1.18,2.71,4.65,4.65,0,0,0,6,0,3.49,3.49,0,0,0,1.17-2.8A3,3,0,0,0,284.84,294Zm-5,16.34c-.54-1-1.17-1.53-1.9-1.53s-.81.36-.81.72v.18a.17.17,0,0,0,.27,0,.09.09,0,0,1,.09-.09c0-.09.09-.18.27-.18s.18,0,.27.27c.09.09.09.18.09.36a.7.7,0,0,1-.09.27.78.78,0,0,1-.27.55,1.2,1.2,0,0,1-.72.27,1.25,1.25,0,0,1-.9-.45,1.86,1.86,0,0,1-.27-.46,7.9,7.9,0,0,0-.45,1.54,5.86,5.86,0,0,0-.18,1.72,8,8,0,0,0,.81,3.88,2.19,2.19,0,0,0,2,1.35,2.35,2.35,0,0,0,1.9-1,5.84,5.84,0,0,0,.81-3.43A9,9,0,0,0,279.87,310.29ZM269,290.16a3.68,3.68,0,0,0-3.07-1.62,4.09,4.09,0,0,0-3,1.26,5.14,5.14,0,0,0-1.18,3.34v4.79a3.45,3.45,0,0,0,.91,2.43,3.32,3.32,0,0,0,2.34.82,4.25,4.25,0,0,0,3.71-2.26,9,9,0,0,0,1.35-4.88A6.8,6.8,0,0,0,269,290.16Zm-17.34.45a7,7,0,0,0-5-2.25A4.73,4.73,0,0,0,243,289.8a4.82,4.82,0,0,0-1.53,3.43,7,7,0,0,0,2.35,5.15,6.65,6.65,0,0,0,4.87,2.25,5.12,5.12,0,0,0,3.61-1.35,5.22,5.22,0,0,0,1.63-4.06A6.76,6.76,0,0,0,251.7,290.61Zm-55.52,0a7.09,7.09,0,0,0-5.15-2.25,5,5,0,0,0-3.61,1.44,4.72,4.72,0,0,0-1.44,3.43,7,7,0,0,0,2.25,5.15,6.86,6.86,0,0,0,5,2.25,5.13,5.13,0,0,0,3.61-1.35,5.24,5.24,0,0,0,1.62-4.06A6.79,6.79,0,0,0,196.18,290.61Zm0,0a7.09,7.09,0,0,0-5.15-2.25,5,5,0,0,0-3.61,1.44,4.72,4.72,0,0,0-1.44,3.43,7,7,0,0,0,2.25,5.15,6.86,6.86,0,0,0,5,2.25,5.13,5.13,0,0,0,3.61-1.35,5.24,5.24,0,0,0,1.62-4.06A6.79,6.79,0,0,0,196.18,290.61Zm55.52,0a7,7,0,0,0-5-2.25A4.73,4.73,0,0,0,243,289.8a4.82,4.82,0,0,0-1.53,3.43,7,7,0,0,0,2.35,5.15,6.65,6.65,0,0,0,4.87,2.25,5.12,5.12,0,0,0,3.61-1.35,5.22,5.22,0,0,0,1.63-4.06A6.76,6.76,0,0,0,251.7,290.61Zm17.34-.45a3.68,3.68,0,0,0-3.07-1.62,4.09,4.09,0,0,0-3,1.26,5.14,5.14,0,0,0-1.18,3.34v4.79a3.45,3.45,0,0,0,.91,2.43,3.32,3.32,0,0,0,2.34.82,4.25,4.25,0,0,0,3.71-2.26,9,9,0,0,0,1.35-4.88A6.8,6.8,0,0,0,269,290.16Zm10.83,20.13c-.54-1-1.17-1.53-1.9-1.53s-.81.36-.81.72v.18a.17.17,0,0,0,.27,0,.09.09,0,0,1,.09-.09c0-.09.09-.18.27-.18s.18,0,.27.27c.09.09.09.18.09.36a.7.7,0,0,1-.09.27.78.78,0,0,1-.27.55,1.2,1.2,0,0,1-.72.27,1.25,1.25,0,0,1-.9-.45,1.86,1.86,0,0,1-.27-.46,7.9,7.9,0,0,0-.45,1.54,5.86,5.86,0,0,0-.18,1.72,8,8,0,0,0,.81,3.88,2.19,2.19,0,0,0,2,1.35,2.35,2.35,0,0,0,1.9-1,5.84,5.84,0,0,0,.81-3.43A9,9,0,0,0,279.87,310.29Zm5-16.34a5.11,5.11,0,0,0-3.16-1,4,4,0,0,0-2.8,1.08,3,3,0,0,0-1.18,2.53,3.41,3.41,0,0,0,1.18,2.71,4.65,4.65,0,0,0,6,0,3.49,3.49,0,0,0,1.17-2.8A3,3,0,0,0,284.84,294Zm0,0a5.11,5.11,0,0,0-3.16-1,4,4,0,0,0-2.8,1.08,3,3,0,0,0-1.18,2.53,3.41,3.41,0,0,0,1.18,2.71,4.65,4.65,0,0,0,6,0,3.49,3.49,0,0,0,1.17-2.8A3,3,0,0,0,284.84,294Zm-5,16.34c-.54-1-1.17-1.53-1.9-1.53s-.81.36-.81.72v.18a.17.17,0,0,0,.27,0,.09.09,0,0,1,.09-.09c0-.09.09-.18.27-.18s.18,0,.27.27c.09.09.09.18.09.36a.7.7,0,0,1-.09.27.78.78,0,0,1-.27.55,1.2,1.2,0,0,1-.72.27,1.25,1.25,0,0,1-.9-.45,1.86,1.86,0,0,1-.27-.46,7.9,7.9,0,0,0-.45,1.54,5.86,5.86,0,0,0-.18,1.72,8,8,0,0,0,.81,3.88,2.19,2.19,0,0,0,2,1.35,2.35,2.35,0,0,0,1.9-1,5.84,5.84,0,0,0,.81-3.43A9,9,0,0,0,279.87,310.29ZM269,290.16a3.68,3.68,0,0,0-3.07-1.62,4.09,4.09,0,0,0-3,1.26,5.14,5.14,0,0,0-1.18,3.34v4.79a3.45,3.45,0,0,0,.91,2.43,3.32,3.32,0,0,0,2.34.82,4.25,4.25,0,0,0,3.71-2.26,9,9,0,0,0,1.35-4.88A6.8,6.8,0,0,0,269,290.16Zm-17.34.45a7,7,0,0,0-5-2.25A4.73,4.73,0,0,0,243,289.8a4.82,4.82,0,0,0-1.53,3.43,7,7,0,0,0,2.35,5.15,6.65,6.65,0,0,0,4.87,2.25,5.12,5.12,0,0,0,3.61-1.35,5.22,5.22,0,0,0,1.63-4.06A6.76,6.76,0,0,0,251.7,290.61Zm-55.52,0a7.09,7.09,0,0,0-5.15-2.25,5,5,0,0,0-3.61,1.44,4.72,4.72,0,0,0-1.44,3.43,7,7,0,0,0,2.25,5.15,6.86,6.86,0,0,0,5,2.25,5.13,5.13,0,0,0,3.61-1.35,5.24,5.24,0,0,0,1.62-4.06A6.79,6.79,0,0,0,196.18,290.61Zm0,0a7.09,7.09,0,0,0-5.15-2.25,5,5,0,0,0-3.61,1.44,4.72,4.72,0,0,0-1.44,3.43,7,7,0,0,0,2.25,5.15,6.86,6.86,0,0,0,5,2.25,5.13,5.13,0,0,0,3.61-1.35,5.24,5.24,0,0,0,1.62-4.06A6.79,6.79,0,0,0,196.18,290.61Zm55.52,0a7,7,0,0,0-5-2.25A4.73,4.73,0,0,0,243,289.8a4.82,4.82,0,0,0-1.53,3.43,7,7,0,0,0,2.35,5.15,6.65,6.65,0,0,0,4.87,2.25,5.12,5.12,0,0,0,3.61-1.35,5.22,5.22,0,0,0,1.63-4.06A6.76,6.76,0,0,0,251.7,290.61Zm17.34-.45a3.68,3.68,0,0,0-3.07-1.62,4.09,4.09,0,0,0-3,1.26,5.14,5.14,0,0,0-1.18,3.34v4.79a3.45,3.45,0,0,0,.91,2.43,3.32,3.32,0,0,0,2.34.82,4.25,4.25,0,0,0,3.71-2.26,9,9,0,0,0,1.35-4.88A6.8,6.8,0,0,0,269,290.16Zm10.83,20.13c-.54-1-1.17-1.53-1.9-1.53s-.81.36-.81.72v.18a.17.17,0,0,0,.27,0,.09.09,0,0,1,.09-.09c0-.09.09-.18.27-.18s.18,0,.27.27c.09.09.09.18.09.36a.7.7,0,0,1-.09.27.78.78,0,0,1-.27.55,1.2,1.2,0,0,1-.72.27,1.25,1.25,0,0,1-.9-.45,1.86,1.86,0,0,1-.27-.46,7.9,7.9,0,0,0-.45,1.54,5.86,5.86,0,0,0-.18,1.72,8,8,0,0,0,.81,3.88,2.19,2.19,0,0,0,2,1.35,2.35,2.35,0,0,0,1.9-1,5.84,5.84,0,0,0,.81-3.43A9,9,0,0,0,279.87,310.29Zm5-16.34a5.11,5.11,0,0,0-3.16-1,4,4,0,0,0-2.8,1.08,3,3,0,0,0-1.18,2.53,3.41,3.41,0,0,0,1.18,2.71,4.65,4.65,0,0,0,6,0,3.49,3.49,0,0,0,1.17-2.8A3,3,0,0,0,284.84,294Zm0,0a5.11,5.11,0,0,0-3.16-1,4,4,0,0,0-2.8,1.08,3,3,0,0,0-1.18,2.53,3.41,3.41,0,0,0,1.18,2.71,4.65,4.65,0,0,0,6,0,3.49,3.49,0,0,0,1.17-2.8A3,3,0,0,0,284.84,294Zm-5,16.34c-.54-1-1.17-1.53-1.9-1.53s-.81.36-.81.72v.18a.17.17,0,0,0,.27,0,.09.09,0,0,1,.09-.09c0-.09.09-.18.27-.18s.18,0,.27.27c.09.09.09.18.09.36a.7.7,0,0,1-.09.27.78.78,0,0,1-.27.55,1.2,1.2,0,0,1-.72.27,1.25,1.25,0,0,1-.9-.45,1.86,1.86,0,0,1-.27-.46,7.9,7.9,0,0,0-.45,1.54,5.86,5.86,0,0,0-.18,1.72,8,8,0,0,0,.81,3.88,2.19,2.19,0,0,0,2,1.35,2.35,2.35,0,0,0,1.9-1,5.84,5.84,0,0,0,.81-3.43A9,9,0,0,0,279.87,310.29ZM269,290.16a3.68,3.68,0,0,0-3.07-1.62,4.09,4.09,0,0,0-3,1.26,5.14,5.14,0,0,0-1.18,3.34v4.79a3.45,3.45,0,0,0,.91,2.43,3.32,3.32,0,0,0,2.34.82,4.25,4.25,0,0,0,3.71-2.26,9,9,0,0,0,1.35-4.88A6.8,6.8,0,0,0,269,290.16Zm-17.34.45a7,7,0,0,0-5-2.25A4.73,4.73,0,0,0,243,289.8a4.82,4.82,0,0,0-1.53,3.43,7,7,0,0,0,2.35,5.15,6.65,6.65,0,0,0,4.87,2.25,5.12,5.12,0,0,0,3.61-1.35,5.22,5.22,0,0,0,1.63-4.06A6.76,6.76,0,0,0,251.7,290.61Zm-55.52,0a7.09,7.09,0,0,0-5.15-2.25,5,5,0,0,0-3.61,1.44,4.72,4.72,0,0,0-1.44,3.43,7,7,0,0,0,2.25,5.15,6.86,6.86,0,0,0,5,2.25,5.13,5.13,0,0,0,3.61-1.35,5.24,5.24,0,0,0,1.62-4.06A6.79,6.79,0,0,0,196.18,290.61Zm0,0a7.09,7.09,0,0,0-5.15-2.25,5,5,0,0,0-3.61,1.44,4.72,4.72,0,0,0-1.44,3.43,7,7,0,0,0,2.25,5.15,6.86,6.86,0,0,0,5,2.25,5.13,5.13,0,0,0,3.61-1.35,5.24,5.24,0,0,0,1.62-4.06A6.79,6.79,0,0,0,196.18,290.61Zm55.52,0a7,7,0,0,0-5-2.25A4.73,4.73,0,0,0,243,289.8a4.82,4.82,0,0,0-1.53,3.43,7,7,0,0,0,2.35,5.15,6.65,6.65,0,0,0,4.87,2.25,5.12,5.12,0,0,0,3.61-1.35,5.22,5.22,0,0,0,1.63-4.06A6.76,6.76,0,0,0,251.7,290.61Zm17.34-.45a3.68,3.68,0,0,0-3.07-1.62,4.09,4.09,0,0,0-3,1.26,5.14,5.14,0,0,0-1.18,3.34v4.79a3.45,3.45,0,0,0,.91,2.43,3.32,3.32,0,0,0,2.34.82,4.25,4.25,0,0,0,3.71-2.26,9,9,0,0,0,1.35-4.88A6.8,6.8,0,0,0,269,290.16Zm15.8,3.79a5.11,5.11,0,0,0-3.16-1,4,4,0,0,0-2.8,1.08,3,3,0,0,0-1.18,2.53,3.41,3.41,0,0,0,1.18,2.71,4.65,4.65,0,0,0,6,0,3.49,3.49,0,0,0,1.17-2.8A3,3,0,0,0,284.84,294Zm0,0a5.11,5.11,0,0,0-3.16-1,4,4,0,0,0-2.8,1.08,3,3,0,0,0-1.18,2.53,3.41,3.41,0,0,0,1.18,2.71,4.65,4.65,0,0,0,6,0,3.49,3.49,0,0,0,1.17-2.8A3,3,0,0,0,284.84,294ZM269,290.16a3.68,3.68,0,0,0-3.07-1.62,4.09,4.09,0,0,0-3,1.26,5.14,5.14,0,0,0-1.18,3.34v4.79a3.45,3.45,0,0,0,.91,2.43,3.32,3.32,0,0,0,2.34.82,4.25,4.25,0,0,0,3.71-2.26,9,9,0,0,0,1.35-4.88A6.8,6.8,0,0,0,269,290.16Zm-17.34.45a7,7,0,0,0-5-2.25A4.73,4.73,0,0,0,243,289.8a4.82,4.82,0,0,0-1.53,3.43,7,7,0,0,0,2.35,5.15,6.65,6.65,0,0,0,4.87,2.25,5.12,5.12,0,0,0,3.61-1.35,5.22,5.22,0,0,0,1.63-4.06A6.76,6.76,0,0,0,251.7,290.61Zm-55.52,0a7.09,7.09,0,0,0-5.15-2.25,5,5,0,0,0-3.61,1.44,4.72,4.72,0,0,0-1.44,3.43,7,7,0,0,0,2.25,5.15,6.86,6.86,0,0,0,5,2.25,5.13,5.13,0,0,0,3.61-1.35,5.24,5.24,0,0,0,1.62-4.06A6.79,6.79,0,0,0,196.18,290.61Zm55.52,0a7,7,0,0,0-5-2.25A4.73,4.73,0,0,0,243,289.8a4.82,4.82,0,0,0-1.53,3.43,7,7,0,0,0,2.35,5.15,6.65,6.65,0,0,0,4.87,2.25,5.12,5.12,0,0,0,3.61-1.35,5.22,5.22,0,0,0,1.63-4.06A6.76,6.76,0,0,0,251.7,290.61Zm17.34-.45a3.68,3.68,0,0,0-3.07-1.62,4.09,4.09,0,0,0-3,1.26,5.14,5.14,0,0,0-1.18,3.34v4.79a3.45,3.45,0,0,0,.91,2.43,3.32,3.32,0,0,0,2.34.82,4.25,4.25,0,0,0,3.71-2.26,9,9,0,0,0,1.35-4.88A6.8,6.8,0,0,0,269,290.16Zm15.8,3.79a5.11,5.11,0,0,0-3.16-1,4,4,0,0,0-2.8,1.08,3,3,0,0,0-1.18,2.53,3.41,3.41,0,0,0,1.18,2.71,4.65,4.65,0,0,0,6,0,3.49,3.49,0,0,0,1.17-2.8A3,3,0,0,0,284.84,294Zm0,0a5.11,5.11,0,0,0-3.16-1,4,4,0,0,0-2.8,1.08,3,3,0,0,0-1.18,2.53,3.41,3.41,0,0,0,1.18,2.71,4.65,4.65,0,0,0,6,0,3.49,3.49,0,0,0,1.17-2.8A3,3,0,0,0,284.84,294ZM269,290.16a3.68,3.68,0,0,0-3.07-1.62,4.09,4.09,0,0,0-3,1.26,5.14,5.14,0,0,0-1.18,3.34v4.79a3.45,3.45,0,0,0,.91,2.43,3.32,3.32,0,0,0,2.34.82,4.25,4.25,0,0,0,3.71-2.26,9,9,0,0,0,1.35-4.88A6.8,6.8,0,0,0,269,290.16Zm-17.34.45a7,7,0,0,0-5-2.25A4.73,4.73,0,0,0,243,289.8a4.82,4.82,0,0,0-1.53,3.43,7,7,0,0,0,2.35,5.15,6.65,6.65,0,0,0,4.87,2.25,5.12,5.12,0,0,0,3.61-1.35,5.22,5.22,0,0,0,1.63-4.06A6.76,6.76,0,0,0,251.7,290.61Zm0,0a7,7,0,0,0-5-2.25A4.73,4.73,0,0,0,243,289.8a4.82,4.82,0,0,0-1.53,3.43,7,7,0,0,0,2.35,5.15,6.65,6.65,0,0,0,4.87,2.25,5.12,5.12,0,0,0,3.61-1.35,5.22,5.22,0,0,0,1.63-4.06A6.76,6.76,0,0,0,251.7,290.61Zm17.34-.45a3.68,3.68,0,0,0-3.07-1.62,4.09,4.09,0,0,0-3,1.26,5.14,5.14,0,0,0-1.18,3.34v4.79a3.45,3.45,0,0,0,.91,2.43,3.32,3.32,0,0,0,2.34.82,4.25,4.25,0,0,0,3.71-2.26,9,9,0,0,0,1.35-4.88A6.8,6.8,0,0,0,269,290.16Zm15.8,3.79a5.11,5.11,0,0,0-3.16-1,4,4,0,0,0-2.8,1.08,3,3,0,0,0-1.18,2.53,3.41,3.41,0,0,0,1.18,2.71,4.65,4.65,0,0,0,6,0,3.49,3.49,0,0,0,1.17-2.8A3,3,0,0,0,284.84,294Zm0,0a5.11,5.11,0,0,0-3.16-1,4,4,0,0,0-2.8,1.08,3,3,0,0,0-1.18,2.53,3.41,3.41,0,0,0,1.18,2.71,4.65,4.65,0,0,0,6,0,3.49,3.49,0,0,0,1.17-2.8A3,3,0,0,0,284.84,294ZM269,290.16a3.68,3.68,0,0,0-3.07-1.62,4.09,4.09,0,0,0-3,1.26,5.14,5.14,0,0,0-1.18,3.34v4.79a3.45,3.45,0,0,0,.91,2.43,3.32,3.32,0,0,0,2.34.82,4.25,4.25,0,0,0,3.71-2.26,9,9,0,0,0,1.35-4.88A6.8,6.8,0,0,0,269,290.16Zm-17.34.45a7,7,0,0,0-5-2.25A4.73,4.73,0,0,0,243,289.8a4.82,4.82,0,0,0-1.53,3.43,7,7,0,0,0,2.35,5.15,6.65,6.65,0,0,0,4.87,2.25,5.12,5.12,0,0,0,3.61-1.35,5.22,5.22,0,0,0,1.63-4.06A6.76,6.76,0,0,0,251.7,290.61Zm0,0a7,7,0,0,0-5-2.25A4.73,4.73,0,0,0,243,289.8a4.82,4.82,0,0,0-1.53,3.43,7,7,0,0,0,2.35,5.15,6.65,6.65,0,0,0,4.87,2.25,5.12,5.12,0,0,0,3.61-1.35,5.22,5.22,0,0,0,1.63-4.06A6.76,6.76,0,0,0,251.7,290.61Zm17.34-.45a3.68,3.68,0,0,0-3.07-1.62,4.09,4.09,0,0,0-3,1.26,5.14,5.14,0,0,0-1.18,3.34v4.79a3.45,3.45,0,0,0,.91,2.43,3.32,3.32,0,0,0,2.34.82,4.25,4.25,0,0,0,3.71-2.26,9,9,0,0,0,1.35-4.88A6.8,6.8,0,0,0,269,290.16Zm15.8,3.79a5.11,5.11,0,0,0-3.16-1,4,4,0,0,0-2.8,1.08,3,3,0,0,0-1.18,2.53,3.41,3.41,0,0,0,1.18,2.71,4.65,4.65,0,0,0,6,0,3.49,3.49,0,0,0,1.17-2.8A3,3,0,0,0,284.84,294Zm0,0a5.11,5.11,0,0,0-3.16-1,4,4,0,0,0-2.8,1.08,3,3,0,0,0-1.18,2.53,3.41,3.41,0,0,0,1.18,2.71,4.65,4.65,0,0,0,6,0,3.49,3.49,0,0,0,1.17-2.8A3,3,0,0,0,284.84,294ZM269,290.16a3.68,3.68,0,0,0-3.07-1.62,4.09,4.09,0,0,0-3,1.26,5.14,5.14,0,0,0-1.18,3.34v4.79a3.45,3.45,0,0,0,.91,2.43,3.32,3.32,0,0,0,2.34.82,4.25,4.25,0,0,0,3.71-2.26,9,9,0,0,0,1.35-4.88A6.8,6.8,0,0,0,269,290.16Zm-17.34.45a7,7,0,0,0-5-2.25A4.73,4.73,0,0,0,243,289.8a4.82,4.82,0,0,0-1.53,3.43,7,7,0,0,0,2.35,5.15,6.65,6.65,0,0,0,4.87,2.25,5.12,5.12,0,0,0,3.61-1.35,5.22,5.22,0,0,0,1.63-4.06A6.76,6.76,0,0,0,251.7,290.61Zm0,0a7,7,0,0,0-5-2.25A4.73,4.73,0,0,0,243,289.8a4.82,4.82,0,0,0-1.53,3.43,7,7,0,0,0,2.35,5.15,6.65,6.65,0,0,0,4.87,2.25,5.12,5.12,0,0,0,3.61-1.35,5.22,5.22,0,0,0,1.63-4.06A6.76,6.76,0,0,0,251.7,290.61Zm17.34-.45a3.68,3.68,0,0,0-3.07-1.62,4.09,4.09,0,0,0-3,1.26,5.14,5.14,0,0,0-1.18,3.34v4.79a3.45,3.45,0,0,0,.91,2.43,3.32,3.32,0,0,0,2.34.82,4.25,4.25,0,0,0,3.71-2.26,9,9,0,0,0,1.35-4.88A6.8,6.8,0,0,0,269,290.16Zm0,0a3.68,3.68,0,0,0-3.07-1.62,4.09,4.09,0,0,0-3,1.26,5.14,5.14,0,0,0-1.18,3.34v4.79a3.45,3.45,0,0,0,.91,2.43,3.32,3.32,0,0,0,2.34.82,4.25,4.25,0,0,0,3.71-2.26,9,9,0,0,0,1.35-4.88A6.8,6.8,0,0,0,269,290.16Zm-17.34.45a7,7,0,0,0-5-2.25A4.73,4.73,0,0,0,243,289.8a4.82,4.82,0,0,0-1.53,3.43,7,7,0,0,0,2.35,5.15,6.65,6.65,0,0,0,4.87,2.25,5.12,5.12,0,0,0,3.61-1.35,5.22,5.22,0,0,0,1.63-4.06A6.76,6.76,0,0,0,251.7,290.61Zm0,0a7,7,0,0,0-5-2.25A4.73,4.73,0,0,0,243,289.8a4.82,4.82,0,0,0-1.53,3.43,7,7,0,0,0,2.35,5.15,6.65,6.65,0,0,0,4.87,2.25,5.12,5.12,0,0,0,3.61-1.35,5.22,5.22,0,0,0,1.63-4.06A6.76,6.76,0,0,0,251.7,290.61Zm0,0a7,7,0,0,0-5-2.25A4.73,4.73,0,0,0,243,289.8a4.82,4.82,0,0,0-1.53,3.43,7,7,0,0,0,2.35,5.15,6.65,6.65,0,0,0,4.87,2.25,5.12,5.12,0,0,0,3.61-1.35,5.22,5.22,0,0,0,1.63-4.06A6.76,6.76,0,0,0,251.7,290.61Zm0,0a7,7,0,0,0-5-2.25A4.73,4.73,0,0,0,243,289.8a4.82,4.82,0,0,0-1.53,3.43,7,7,0,0,0,2.35,5.15,6.65,6.65,0,0,0,4.87,2.25,5.12,5.12,0,0,0,3.61-1.35,5.22,5.22,0,0,0,1.63-4.06A6.76,6.76,0,0,0,251.7,290.61Zm0,0a7,7,0,0,0-5-2.25A4.73,4.73,0,0,0,243,289.8a4.82,4.82,0,0,0-1.53,3.43,7,7,0,0,0,2.35,5.15,6.65,6.65,0,0,0,4.87,2.25,5.12,5.12,0,0,0,3.61-1.35,5.22,5.22,0,0,0,1.63-4.06A6.76,6.76,0,0,0,251.7,290.61Z"/><path class="cls-3" d="M167.92,283.84a10,10,0,0,0-2.08,6.32,11.72,11.72,0,0,0,2.62,7.59A8,8,0,0,0,175,301h1a14.12,14.12,0,0,0,1.45-.37,2.54,2.54,0,0,0,1-.36c-.09-.09-.18-.27-.27-.36s-.18-.36-.36-.63-.18-.63-.27-1v-8a2.86,2.86,0,0,1-.81.27,3.78,3.78,0,0,1-1.09.09,3.59,3.59,0,0,1-1.8-.63,4,4,0,0,0-1.54-.63,1,1,0,0,0-.72.27.42.42,0,0,0-.27.45c0,.18,0,.36.18.45,0,.09.18.18.36.09s.27,0,.36-.09h.09q.13-.27.27-.27a.39.39,0,0,1,.36.36,3.9,3.9,0,0,1,.09.45.57.57,0,0,1-.09.37c0,.18-.18.36-.45.63a1.6,1.6,0,0,1-.9.36,1.4,1.4,0,0,1-1.17-.63,2.73,2.73,0,0,1-.46-1.36v-.27a2.79,2.79,0,0,1,1-1.8,2.88,2.88,0,0,1,2.07-.73,5.13,5.13,0,0,1,2.08.37,10.45,10.45,0,0,0,3.25.81,6.19,6.19,0,0,0,1.17-.18c.46-.18.91-.36,1.27-.54h.09c.27,0,.36.09.36.18s.09.18,0,.36a2.39,2.39,0,0,0-.45.54,2.52,2.52,0,0,0-.63,1.71v6.41a4.3,4.3,0,0,0,.45,2c.09.09.27.36.72.9a.33.33,0,0,1,.09.27c0,.18,0,.27-.18.37a7.41,7.41,0,0,1-2.62,1.08,15.13,15.13,0,0,1-4.24.63,10.36,10.36,0,0,1-8-3.52,11.94,11.94,0,0,1-3.25-8.31,11.55,11.55,0,0,1,2.8-7.76,9.52,9.52,0,0,1,7.5-3.25,10.35,10.35,0,0,1,3.43.63,15.31,15.31,0,0,0,2.07.54c1,0,1.09-.36,1.09-.72a.47.47,0,0,0-.18-.36.47.47,0,0,0-.37-.18h-.18c-.09,0-.09.09-.18.09h-.27a.29.29,0,0,1-.27-.27c0-.18,0-.27.09-.36a1.61,1.61,0,0,1,.72-.82,3.36,3.36,0,0,1,1-.18,1.66,1.66,0,0,1,1.44.64,2,2,0,0,1,.45,1.44,2,2,0,0,1-.81,1.63A5,5,0,0,1,177,282a13.39,13.39,0,0,0-3.7-.91A6.53,6.53,0,0,0,167.92,283.84Z"/><path class="cls-3" d="M215,283.84a10,10,0,0,0-2.08,6.32,11.65,11.65,0,0,0,2.53,7.59,8.21,8.21,0,0,0,6.5,3.25H223c.36-.09.81-.18,1.45-.37a3.22,3.22,0,0,0,1-.36.48.48,0,0,1-.27-.36,1.93,1.93,0,0,1-.36-.63,1.81,1.81,0,0,1-.27-1c0-.45-.09-.91-.09-1.54v-6.5a4,4,0,0,1-.73.27,4.75,4.75,0,0,1-1.17.09,3.94,3.94,0,0,1-1.81-.63,3.63,3.63,0,0,0-1.44-.63,1.45,1.45,0,0,0-.81.27.42.42,0,0,0-.27.45.69.69,0,0,0,.18.45.4.4,0,0,0,.45.09c.09,0,.27,0,.27-.09h.09a.48.48,0,0,1,.36-.27.4.4,0,0,1,.27.36.67.67,0,0,1,.09.45v.37a2.08,2.08,0,0,1-.45.63,1.9,1.9,0,0,1-.9.36,1.59,1.59,0,0,1-1.27-.63,2.57,2.57,0,0,1-.36-1.36v-.27a2.42,2.42,0,0,1,1-1.8,2.75,2.75,0,0,1,2.07-.73,5.45,5.45,0,0,1,2.08.37,9.38,9.38,0,0,0,3.25.81,4.52,4.52,0,0,0,1.08-.18l1.36-.54h.09a.47.47,0,0,1,.36.18c0,.09.09.18,0,.36h-.09a2.39,2.39,0,0,1-.45.54,3,3,0,0,0-.64,1.71v6.41a3.36,3.36,0,0,0,.55,2c0,.09.18.36.63.9.09.09.18.18.18.27a.51.51,0,0,1-.18.37,8.19,8.19,0,0,1-2.71,1.08,14.6,14.6,0,0,1-4.15.63,10.55,10.55,0,0,1-8-3.52,12.22,12.22,0,0,1-3.16-8.31,11.08,11.08,0,0,1,2.8-7.76,9.45,9.45,0,0,1,7.4-3.25,9.89,9.89,0,0,1,3.43.63,11.89,11.89,0,0,0,2.17.54c.9,0,1.08-.36,1.08-.72a.47.47,0,0,0-.18-.36.69.69,0,0,0-.45-.18h-.09a.31.31,0,0,0-.18.09h-.36c-.09,0-.18-.18-.18-.27s0-.27.09-.36a1.46,1.46,0,0,1,.63-.82,4.52,4.52,0,0,1,1.09-.18,1.77,1.77,0,0,1,1.44.64,2.49,2.49,0,0,1,.45,1.44,1.83,1.83,0,0,1-.9,1.63c-1.09.81-2.71.72-4.34.18a13.23,13.23,0,0,0-3.7-.91A6.41,6.41,0,0,0,215,283.84Z"/><path class="cls-3" d="M296.39,314.54a5.05,5.05,0,0,1-1.53,3.7,5.43,5.43,0,0,1-3.79,1.62,3.34,3.34,0,0,1-1.9-.54,1.86,1.86,0,0,1-.9-1.53,1.29,1.29,0,0,1,.36-.9.86.86,0,0,1,.81-.37,1.16,1.16,0,0,1,.81.19.73.73,0,0,1,.36.72,1.3,1.3,0,0,1-.18.63.68.68,0,0,1-.36.18c-.09,0-.27-.18-.27-.18V318h-.09a.09.09,0,0,0-.09-.09.31.31,0,0,1-.09.18c0,.18.09.45.54.63a2.5,2.5,0,0,0,1.18.27,3.29,3.29,0,0,0,2.52-1.26,4.23,4.23,0,0,0,1.09-2.89,3.38,3.38,0,0,0-.54-1.9,1.91,1.91,0,0,0-1.54-.81,3.24,3.24,0,0,0-1,.18c-.27.18-.54.27-.63.54V313c-.09,0-.09.18-.09.27l-.09.09c-.1.1-.19.1-.37.1h-.45l-.18.27.09-.27H290a.64.64,0,0,1-.36-.55l.18-1a4.38,4.38,0,0,0,.09-1.08c0-1.18-.09-1.9-.09-2.08s.09-.18.09-.27l.09-.18c.09-.09.18-.09.36-.09l1.63.27a11,11,0,0,0,1.71.18c.45,0,.64,0,.73-.09s.18-.18.18-.18v-.18a.48.48,0,0,1-.27-.36,1.29,1.29,0,0,1,.18-.27.54.54,0,0,1,.36-.09h.27a1.26,1.26,0,0,1,.81.27,1.62,1.62,0,0,1,.36.81,1.17,1.17,0,0,1-.81,1.08,3,3,0,0,1-1.36.27,7.72,7.72,0,0,1-2-.18,8.33,8.33,0,0,1-1.27-.27v1.36a2.49,2.49,0,0,1-.09.81,3.44,3.44,0,0,1,.73-.45,3.72,3.72,0,0,1,1.71-.45,2.91,2.91,0,0,1,2.35,1.08A4,4,0,0,1,296.39,314.54Z"/><path class="cls-3" d="M286.37,312.55a23.06,23.06,0,0,0-.18,2.8,6.65,6.65,0,0,0,.27,2,3.16,3.16,0,0,0,.54,1.26.33.33,0,0,1,.09.27c0,.09,0,.18-.18.27l-.09.09c-.18,0-.27,0-.36.09s-.27,0-.36.09-.27.09-.36.18l-.45.18h-.09a.29.29,0,0,1-.27-.27,4.42,4.42,0,0,1-.27-1.17c0-.54-.1-1.08-.1-1.62a29.52,29.52,0,0,1,.37-3.53,27.79,27.79,0,0,1,.63-2.89,1.26,1.26,0,0,1-1.54.19.81.81,0,0,1-.36-.64v-.36c.09-.09.18-.27.27-.36l.18-.09.27.18.09.18h.19a1,1,0,0,0,.9-.45,8.17,8.17,0,0,1,.54-.81.33.33,0,0,1,.45-.18.39.39,0,0,1,.27.09c.09.09.18.09.27.18s.18.18.18.27,0,.18-.09.18c-.18.72-.36,1.35-.45,1.72A13.48,13.48,0,0,0,286.37,312.55Z"/><path class="cls-3" d="M281.22,309.66a3.76,3.76,0,0,0-3.07-1.71,3.11,3.11,0,0,0-1.62.45,1.48,1.48,0,0,0-.72,1.08h-.09a.47.47,0,0,0-.36.18,4.69,4.69,0,0,0-1.09,1.9,6.33,6.33,0,0,0-.63,2.8,6.68,6.68,0,0,0,1.08,4,3.54,3.54,0,0,0,3,1.53,4.05,4.05,0,0,0,3.34-2,6.69,6.69,0,0,0,1.36-4.15A7.17,7.17,0,0,0,281.22,309.66Zm-1.26,8a2.35,2.35,0,0,1-1.9,1,2.19,2.19,0,0,1-2-1.35,8,8,0,0,1-.81-3.88,5.86,5.86,0,0,1,.18-1.72,7.9,7.9,0,0,1,.45-1.54,1.86,1.86,0,0,0,.27.46,1.25,1.25,0,0,0,.9.45,1.2,1.2,0,0,0,.72-.27.78.78,0,0,0,.27-.55.7.7,0,0,0,.09-.27c0-.18,0-.27-.09-.36-.09-.27-.18-.27-.27-.27s-.27.09-.27.18a.09.09,0,0,0-.09.09.17.17,0,0,1-.27,0v-.18c0-.36.09-.72.81-.72s1.36.54,1.9,1.53a9,9,0,0,1,.9,4A5.84,5.84,0,0,1,280,317.7Z"/><path class="cls-3" d="M272.11,317.88V318c-.09.09-.19.27-.28.36s-.09.27-.18.45-.09.18-.09.36v.36a.61.61,0,0,1-.36.36c-.09,0-.18-.09-.27-.09a5.07,5.07,0,0,0-1.08-.36,11.36,11.36,0,0,0-1.9-.18,7.21,7.21,0,0,0-2.07.27s-.27.09-.91.36h-.09c-.09,0-.18,0-.18-.09s-.09-.09-.09-.27v-.09a3,3,0,0,1,.45-1.08c.27-.36.55-.81.82-1.17A14.31,14.31,0,0,1,268,314.9a9.59,9.59,0,0,0,1.72-1.63,3.59,3.59,0,0,0,.63-2.16,1.87,1.87,0,0,0-.63-1.54,1.7,1.7,0,0,0-1.54-.72,2.29,2.29,0,0,0-1.44.45,1.56,1.56,0,0,0-.54,1.09,1.75,1.75,0,0,0,.09.72.64.64,0,0,0,.54.27c.09,0,.18-.09.27-.09l.18-.18.09-.09v-.09c.09-.09.18-.27.36-.27h.09l.09.09a.76.76,0,0,1,.18.54.81.81,0,0,1,.09.45.86.86,0,0,1-.54.81,1.35,1.35,0,0,1-1,.36,1.6,1.6,0,0,1-1.27-.63,2.21,2.21,0,0,1-.45-1.35,2.56,2.56,0,0,1,1.09-2.17,3.52,3.52,0,0,1,2.34-.81,3.86,3.86,0,0,1,2.53.81,3.2,3.2,0,0,1,1.18,2.71,2.62,2.62,0,0,1-.46,1.62,5.25,5.25,0,0,1-1,1.27,10.55,10.55,0,0,0-1.35,1.08c-.45.36-.91.63-1.36,1l-1,1a6.35,6.35,0,0,0-.63.81,2.4,2.4,0,0,1,1.08-.27,6.79,6.79,0,0,1,2-.18h1.62c.09-.09.18-.09.36-.18s.27-.09.36-.09a.46.46,0,0,1,.37,0C272.11,317.61,272.2,317.7,272.11,317.88Z"/><path class="cls-4" d="M451.13,255.76c-3.79,5.34-9.2,8.88-14.29,12.74-11.65,8.77-22.55,18.4-33.48,28-16.17,14.18-25.48,32-30.78,52.47-4,15.66-6.79,31.54-9.71,47.38a38,38,0,0,1-2.49,9.31c-4.19,6.71-13.82,11.22-23.89,9a.21.21,0,0,1-.14-.07,1.74,1.74,0,0,1-.11-.18h0v0a.27.27,0,0,1-.18-.28.46.46,0,0,1-.11-.29.8.8,0,0,1,.22.32c2.81-4.91,3.57-10.39,3.9-15.91.79-12-1.19-23.82-4-35.44-3-12.41-6.9-24.54-12.81-35.94-.18.15-.33.33-.51.47,0-.11-.07-.25-.11-.36-.86-2.89-2.74-5.31-3.71-8.16v-.07l.21-.22c.62-1.55,1.92-2.59,3-3.82,11.8-13.68,20.86-28.9,26.31-46.23.86-2.74,1.15-5.7,2.56-8.3a1.32,1.32,0,0,1,.07-.32,1.36,1.36,0,0,1,.51-.22.19.19,0,0,1,.14-.07,53.34,53.34,0,0,1,7.58-.22H360c-.07.29-.11.55-.18.83,8.48.44,16.88-.57,25.26-1.84,16.27-2.41,32-6.67,46.58-14.5,5.85-3.14,11.23-7,15-12.74l-.51-.11s.08-.11.11-.14a.21.21,0,0,1,.15,0,1.16,1.16,0,0,1,.86,0h0s.11.07.14.15C453.12,235.88,455.39,249.37,451.13,255.76Z"/><path class="cls-5" d="M449.37,228.91a4,4,0,0,1-1.92,2,.77.77,0,0,1-.36.18c-.14,0-.29,0-.43,0l-.51-.11s.08-.11.11-.14a.21.21,0,0,1,.15,0,35.54,35.54,0,0,0-8.41-8c-23.82-15.55-50.56-19.92-78.31-20.46,0,.25.11.54.15.79h-.58a47,47,0,0,1-7.51-.14c-.07,0-.14,0-.18-.07a2,2,0,0,1-.57-.29c0-.11,0-.22,0-.33-.4-1.12-.87-2.2-1.15-3.32a116.37,116.37,0,0,0-19-40.56c-3.57-4.87-7.47-9.52-11.22-14.29-.11-.07-.22-.18-.33-.25a1.28,1.28,0,0,1,.07-.36,40,40,0,0,1,3.21-8c0-.11.11-.22.15-.33.18.15.32.33.5.47,3-4.87,4.8-10.32,6.75-15.69,5.92-16.21,9.78-32.84,10.29-50.2.21-7.4-1.77-14.32-3.5-21.32a.38.38,0,0,1-.26,0l.08-.08a1.27,1.27,0,0,1,.54-.54c2.31-.79,4.72-.32,7.07-.4,6.46,1.3,12.41,3.43,16.27,9.28,2.82,6.21,3.36,12.92,4.41,19.52,3.1,19.13,7.21,38,14.07,56.19,3.57,9.41,9.27,17.57,16.2,24.89,14.15,15,30.1,27.86,46.55,40.17,3.47,2.6,6.9,5.34,9.35,9C454.85,214.22,453.51,221.66,449.37,228.91Z"/><path class="cls-6" d="M143.36,318.58a.66.66,0,0,1-.07.26c-.65,2.85-2.56,5.19-3.47,8,0,.15-.1.33-.14.47-.18-.14-.33-.32-.51-.47-.9,1.84-1.91,3.65-2.7,5.52a181.14,181.14,0,0,0-13.28,47.24c-1.52,11.73-1.52,23.27,2.74,34.53a.57.57,0,0,1,.33-.07.29.29,0,0,0-.08.14,3.66,3.66,0,0,1-3.57,1.48c-8.44-.43-16-2.81-20.71-10.53-2.56-5.24-2.92-11-3.9-16.64-3.43-20.39-7.18-40.74-15-60a75.59,75.59,0,0,0-15-23.06C53.47,289.93,36.76,277.08,20,264.31a43.56,43.56,0,0,1-8.87-8.55c-3.65-9-2.31-17.29,3.68-24.9a.12.12,0,0,1,.11,0c.07-.07.14-.07.18-.11a1.73,1.73,0,0,1,.75,0l0,0s.11.08.14.15a.88.88,0,0,1-.32.07c3.64,6.1,9.45,9.89,15.48,13,22.37,11.51,46.37,16.13,71.41,16.2a7.27,7.27,0,0,1-.14-.79H103c2.52,0,5,0,7.61-.11.07,0,.11,0,.14,0h0l0,0a2.16,2.16,0,0,1,.47.15c0,.07,0,.14,0,.22A43.22,43.22,0,0,1,112.8,264c3.1,13.82,9.49,26.16,17.24,37.85,3.9,5.92,9,10.83,13.1,16.6A1.09,1.09,0,0,0,143.36,318.58Z"/><path class="cls-7" d="M143.25,143.42c-.07.08-.14.11-.21.18-3.76,4.62-7.69,9.1-11.15,13.93a128.81,128.81,0,0,0-20.57,44.71,2,2,0,0,0-.08.47s0,0-.07,0a1.76,1.76,0,0,1-.4.07c-2.56.58-5.16.25-7.75.29h-.62a8,8,0,0,1,.15-.83c-20.79-.51-40.71,3.79-60.12,10.86-10.25,3.72-19.56,9-26.56,17.57,0,0,.11.08.14.15a.88.88,0,0,1-.32.07,3.09,3.09,0,0,0-.51,0,.61.61,0,0,1-.28-.08,2.62,2.62,0,0,1-1.27-1c-3.89-5.2-6.78-16.38-1.91-23.75,6.06-7.39,14.29-12.26,21.58-18.22,14.36-11.65,28.83-23.17,40.34-37.82,7.76-9.85,11.73-21.43,15.16-33.19,4.73-16.13,7.47-32.73,10.5-49.23.65-3.5,1-7.1,2.67-10.32,4.66-8,12.34-10,20.75-10.57,1.3-.11,2.63.15,3.17,1.44v.08l0,0s0,0,0,.08a1.15,1.15,0,0,1,.07.36c-.11.14-.33.18-.65.1-.9,4.23-2.24,8.3-2.71,12.63-1.44,12.71.54,25.08,3.43,37.35a160.15,160.15,0,0,0,13.06,36.85c.18-.18.37-.33.55-.51a1,1,0,0,0,.1.33c.83,2.67,2.6,5,3.36,7.72v0A.27.27,0,0,1,143.25,143.42Z"/><path class="cls-8" d="M336.16,416.19a25,25,0,0,1-17,13.9,7.28,7.28,0,0,1-2.78.14,10.33,10.33,0,0,1-1-.32c-5.38-.54-10.07-3.11-15-5.06-17.61-7.1-35.4-13.71-54.13-17.46-14-2.82-27.6-1-41.13,2.53-17.07,4.43-33.38,11-49.66,17.64-2.67,1.12-5.37,2.31-8.37,2.46-7.83,1-18.94-6.43-20.82-14a2.21,2.21,0,0,1,.14-1.58c0-.08.08-.11.11-.18s0,0,0-.08.07,0,.11.11a62.48,62.48,0,0,0,25.29-12A148.51,148.51,0,0,0,177.28,378c5.05-6.24,10.54-12.16,14.36-19.31a4.67,4.67,0,0,1-.68-.25,2,2,0,0,0,.36-.4c1.84-2.2,2.74-5.12,5-7a.1.1,0,0,1,.07,0s.11,0,.14,0a9,9,0,0,1,3.22.39,121.54,121.54,0,0,0,52.14,2.31c4.69-.83,9.16-2.52,14-2.67l.33-.1a2.83,2.83,0,0,1,.36.32,16.82,16.82,0,0,1,2.09,3.14c.83,1.3,1.63,2.6,2.56,3.79,0,.07.11.11.15.18s.07.11.11.14l-.62.22a15.54,15.54,0,0,0,.87,1.73,187.34,187.34,0,0,0,29.55,34.1c10.11,9.13,21,16.93,34.79,19.53a.46.46,0,0,1-.11-.29.8.8,0,0,1,.22.32l.07.25v0h0a1.74,1.74,0,0,0,.11.18A1.75,1.75,0,0,1,336.16,416.19Z"/><path class="cls-3" d="M336.42,48.05a.94.94,0,0,1-.11.18,0,0,0,0,1,0,0c-.07,0-.07-.08-.11-.11C325,50.5,315.38,55.92,306.72,63.24c-13.93,11.8-26.2,25.05-36,40.49l.65.22s0,0,0,.07a3.54,3.54,0,0,1-.37.43,51.53,51.53,0,0,0-3.06,4.73,12.81,12.81,0,0,1-1.27,1.84h0a1.62,1.62,0,0,1-.43.4,1.8,1.8,0,0,0-.4-.15,125.92,125.92,0,0,0-69.29,0l-.32.11a2.16,2.16,0,0,1-.4-.4,14.91,14.91,0,0,1-1.08-1.77,18.26,18.26,0,0,0-3.5-4.58c0-.07-.11-.11-.14-.15a1.16,1.16,0,0,0-.19-.28l.73-.22a17.38,17.38,0,0,0-1.27-2.6C182.51,90,173.85,79.3,163.6,70c-10.89-9.92-22.26-19-37.34-21.87a1.18,1.18,0,0,1-.08.4.32.32,0,0,1-.18-.18s0,0-.07,0l0,0v-.08c0-2.92,1.74-5,3.4-7.1,4.51-5.6,10.32-8.77,17.64-8.88,9.85,2.27,18.8,7,28.22,10.46,12.81,4.66,25.69,8.95,39,11.88,14.65,3.21,29,1.66,43.3-2.13,16.46-4.37,32.15-10.79,47.92-16.93,3.43-1.33,6.79-2.85,10.5-3.21,8.27-.5,18.41,6.64,20.61,14.51A1.73,1.73,0,0,1,336.42,48.05Z"/><path class="cls-8" d="M254,439.07a23.26,23.26,0,0,1-23,23.37c-12.59,0-23-10.6-22.9-23.43a22.95,22.95,0,1,1,45.89.06Z"/><path class="cls-7" d="M72.81,126.61c-.3,13.14-10.65,23.5-23.17,23.2A23.32,23.32,0,0,1,27,126.08c.31-12.65,10.7-23,22.92-22.79A22.92,22.92,0,0,1,72.81,126.61Z"/><path class="cls-9" d="M230.94,46.37a22.78,22.78,0,0,1-22.8-23.1A23,23,0,0,1,231.22,0c12.3,0,22.68,10.51,22.71,23A23,23,0,0,1,230.94,46.37Z"/><path class="cls-6" d="M72.74,335.69c.06,13.05-10.22,23.63-22.84,23.52A23.33,23.33,0,0,1,27,335.94c.09-12.82,10.32-23.3,22.79-23.36A23,23,0,0,1,72.74,335.69Z"/><path class="cls-10" d="M389.61,126.51c.07-12.87,10.67-23.54,23.16-23.32a23.14,23.14,0,0,1,22.59,23.48c0,12.68-10.51,23.23-23,23.14A23.25,23.25,0,0,1,389.61,126.51Z"/><path class="cls-4" d="M435.41,335.62c0,12.8-10.14,23.42-22.56,23.59-12.66.17-23.25-10.61-23.21-23.6,0-12.52,10.44-23.05,22.73-23A23.16,23.16,0,0,1,435.41,335.62Z"/><path class="cls-11" d="M315.3,429.92c10-1.13,16.82-6.5,20.89-15.57,5.78-.06,11.6.4,16.86-3,2.64-1.7,4.76-4,7.33-5.7-3.68,11.61-9.49,21.52-22.13,25A38.13,38.13,0,0,1,315.3,429.92Z"/><path class="cls-12" d="M147,430c-14.69,4.11-29.59,2.34-38-9.82-3.21-4.62-6.06-9.45-7.18-15.08,4,3.68,7.86,7.68,13.64,8.69,3.43.58,6.89,1.92,10.39.29a.57.57,0,0,1,.33-.07.33.33,0,0,1,.25.14s.07,0,.11.11c1.91,7.18,7.11,11.26,13.56,14.11A18.11,18.11,0,0,0,147,430Z"/><path class="cls-13" d="M146.93,32.21A77.52,77.52,0,0,0,138.38,35a22.22,22.22,0,0,0-12.12,13.13,1.18,1.18,0,0,1-.08.4.33.33,0,0,1-.14.22c-.11.14-.33.18-.65.1-1.34-2.56-3.61-1.22-5.41-1.08-7.29.69-13.17,4.19-18,9.56,5-17.46,15.88-27.93,33.78-26.88A50.53,50.53,0,0,1,146.93,32.21Z"/><path class="cls-14" d="M360.41,56.64c-3.42-2.64-6.49-5.88-10.89-7-1.63-.43-3.25-1-4.88-1.45a19.65,19.65,0,0,0-7.79,0l-.14.19a.38.38,0,0,1-.26,0,.21.21,0,0,1-.18-.11c-.07,0-.07-.08-.11-.11-2.74-8-8.51-12.7-16.49-14.9-1.26-.37-2.52-.65-3.79-1C337.57,26.44,353.16,33.4,360.41,56.64Z"/><path class="cls-15" d="M447.1,231.09c3.2-5.23,5.68-10.65,5.21-17-.19-2.6-1.53-5-1.33-7.63,15.19,15.89,15.34,33.69.16,49.35.43-3.31,1.39-6.52,1.33-9.94C452.38,240.24,450.09,235.57,447.1,231.09Z"/><path class="cls-16" d="M11.71,206.12C8.79,215,9.82,223.23,15.18,230.9c-1.43,3.23-3.52,6.15-4.5,9.6a22.83,22.83,0,0,0,.16,11.75,11.27,11.27,0,0,1,.28,3.51C-3.7,239.9-3.91,221.94,11.71,206.12Z"/><path class="cls-2" d="M323.25,326.81c-.18.15-.33.33-.51.47v0a137.29,137.29,0,0,1-51.31,31.17l-.62.22c-2.27-2.16-3.5-5-5-7.69l.33-.1a125.8,125.8,0,0,0,47.31-27.07c1.84-1.66,3.61-3.43,5.45-5.16l.21-.22A26.64,26.64,0,0,1,323.25,326.81Z"/><path class="cls-2" d="M360,259.29c-.07.29-.11.55-.18.83H351a1.32,1.32,0,0,1,.07-.32c1.05-6.39,2.31-12.74,2.85-19.2a117.07,117.07,0,0,0-2.52-35.47c-.18-.83-.26-1.7-.36-2.56,0-.11,0-.22,0-.33,2.92,0,5.81,0,8.73,0,0,.25.11.54.15.79C363.55,221.8,363.91,240.57,360,259.29Z"/><path class="cls-2" d="M323.17,135.59c-1.19,2.85-2.41,5.67-3.6,8.48-.11-.07-.22-.18-.33-.25-4.33-3.43-7.94-7.58-12.3-11a127.1,127.1,0,0,0-40.74-21.43,1.8,1.8,0,0,0-.4-.15c1.66-2.52,2.7-5.41,4.94-7.54l.65.22a139.9,139.9,0,0,1,51.28,31.17C322.85,135.27,323,135.45,323.17,135.59Z"/><path class="cls-2" d="M196.51,351a31,31,0,0,1-4.87,7.68,4.67,4.67,0,0,1-.68-.25A137.55,137.55,0,0,1,150.58,337c-3.86-3-7.29-6.39-10.9-9.67-.18-.14-.33-.32-.51-.47.73-3.07,2.64-5.63,4-8.41a1.09,1.09,0,0,0,.22.18c15.16,14.94,32.59,26.06,53,32.37C196.41,351,196.48,351,196.51,351Z"/><path class="cls-2" d="M111.35,259.66c-2.88,1.19-5.84.43-8.77.46a7.27,7.27,0,0,1-.14-.79,141.88,141.88,0,0,1,0-56.22,8,8,0,0,1,.15-.83c2.92,0,5.84,0,8.77,0a2,2,0,0,0-.08.47,143.4,143.4,0,0,0-2.88,35.08c.32,7.32,1.69,14.47,3,21.65C111.32,259.51,111.35,259.58,111.35,259.66Z"/><path class="cls-2" d="M196.51,111.31l-.32.11c-19.45,5.73-36.16,16-50.66,30.13-.73.68-1.52,1.26-2.28,1.87-.07.08-.14.11-.21.18a26.21,26.21,0,0,1-3.87-7.93c.18-.18.37-.33.55-.51,12.08-11.22,25.33-20.64,40.56-27.17a78,78,0,0,1,10.6-3.75l.73-.22C194.2,105.79,195.22,108.64,196.51,111.31Z"/><path class="cls-2" d="M266.64,191.17h0v0Z"/><polygon class="cls-2" points="266.65 191.15 266.65 191.17 266.64 191.17 266.65 191.15"/></g></g></svg>